G04 #@! TF.FileFunction,Copper,L1,Top,Signal*
%FSLAX46Y46*%
G04 Gerber Fmt 4.6, Leading zero omitted, Abs format (unit mm)*
G04 Created by KiCad (PCBNEW (2015-07-01 BZR 5850)-product) date Mon Jul 20 16:06:04 2015*
%MOMM*%
G01*
G04 APERTURE LIST*
%ADD10C,0.100000*%
%ADD11C,1.524000*%
%ADD12C,1.727200*%
%ADD13O,1.727200X1.727200*%
%ADD14O,1.524000X3.048000*%
%ADD15C,1.998980*%
%ADD16C,0.762000*%
%ADD17C,0.254000*%
G04 APERTURE END LIST*
D10*
X165100000Y-77216000D02*
X165100000Y-100584000D01*
X128016000Y-76200000D02*
X164084000Y-76200000D01*
X127000000Y-100584000D02*
X127000000Y-77216000D01*
X164084000Y-101600000D02*
X128016000Y-101600000D01*
X127000000Y-100584000D02*
G75*
G03X128016000Y-101600000I1016000J0D01*
G01*
X128016000Y-76200000D02*
G75*
G03X127000000Y-77216000I0J-1016000D01*
G01*
X165100000Y-77216000D02*
G75*
G03X164084000Y-76200000I-1016000J0D01*
G01*
X164084000Y-101600000D02*
G75*
G03X165100000Y-100584000I0J1016000D01*
G01*
D11*
X134620000Y-92837000D03*
X132080000Y-92837000D03*
X137541000Y-92837000D03*
X140081000Y-92837000D03*
D12*
X161290000Y-99822000D03*
X161290000Y-97282000D03*
D13*
X133604000Y-88519000D03*
X133604000Y-85979000D03*
X133604000Y-83439000D03*
X129032000Y-82550000D03*
X129032000Y-85090000D03*
X129032000Y-87630000D03*
X129032000Y-90170000D03*
X129032000Y-92710000D03*
X129032000Y-95250000D03*
X160401000Y-85090000D03*
X162941000Y-85090000D03*
X160401000Y-87630000D03*
X162941000Y-87630000D03*
X160401000Y-90170000D03*
X162941000Y-90170000D03*
X160401000Y-92710000D03*
X162941000Y-92710000D03*
X143510000Y-88519000D03*
X143510000Y-85979000D03*
X143510000Y-83439000D03*
D12*
X156083000Y-100076000D03*
X151003000Y-100076000D03*
X156083000Y-92456000D03*
X151003000Y-92456000D03*
X143129000Y-92456000D03*
X148209000Y-92456000D03*
X143129000Y-100076000D03*
X148209000Y-100076000D03*
D14*
X138938000Y-98933000D03*
X136398000Y-98933000D03*
X133858000Y-98933000D03*
D12*
X137287000Y-88646000D03*
X137287000Y-78486000D03*
X146939000Y-82042000D03*
X157099000Y-82042000D03*
X146939000Y-78994000D03*
X157099000Y-78994000D03*
X157099000Y-88138000D03*
X146939000Y-88138000D03*
X140081000Y-78486000D03*
X140081000Y-88646000D03*
D15*
X146939000Y-85090000D03*
X157099000Y-85090000D03*
D16*
X133604000Y-88519000D02*
X133604000Y-90170000D01*
X133604000Y-90170000D02*
X134620000Y-91186000D01*
X134620000Y-91186000D02*
X134620000Y-92837000D01*
X133858000Y-98933000D02*
X133858000Y-95250000D01*
X134620000Y-94488000D02*
X134620000Y-92837000D01*
X133858000Y-95250000D02*
X134620000Y-94488000D01*
X157099000Y-88138000D02*
X157099000Y-90805000D01*
X159004000Y-92710000D02*
X160401000Y-92710000D01*
X157099000Y-90805000D02*
X159004000Y-92710000D01*
X135509000Y-85344000D02*
X135509000Y-89916000D01*
X135509000Y-89916000D02*
X136271000Y-90678000D01*
X136271000Y-90678000D02*
X136906000Y-90678000D01*
X136906000Y-90678000D02*
X137541000Y-91313000D01*
X137541000Y-91313000D02*
X137541000Y-92837000D01*
X135509000Y-85344000D02*
X133604000Y-83439000D01*
X136271000Y-90678000D02*
X135509000Y-89916000D01*
X136906000Y-90678000D02*
X136271000Y-90678000D01*
X136398000Y-98933000D02*
X136398000Y-96139000D01*
X137541000Y-94996000D02*
X137541000Y-92837000D01*
X136398000Y-96139000D02*
X137541000Y-94996000D01*
X146939000Y-85090000D02*
X152336500Y-85090000D01*
X152336500Y-85090000D02*
X155384500Y-88138000D01*
X155384500Y-88138000D02*
X157099000Y-88138000D01*
X146939000Y-82042000D02*
X146939000Y-85090000D01*
X146939000Y-78994000D02*
X146939000Y-82042000D01*
X160401000Y-92710000D02*
X160020000Y-92710000D01*
D17*
X161290000Y-99822000D02*
X159194500Y-99822000D01*
X145288000Y-97917000D02*
X143129000Y-100076000D01*
X157289500Y-97917000D02*
X145288000Y-97917000D01*
X159194500Y-99822000D02*
X157289500Y-97917000D01*
X163385500Y-99822000D02*
X161290000Y-99822000D01*
X164465000Y-98742500D02*
X163385500Y-99822000D01*
X164465000Y-98742500D02*
X164465000Y-91694000D01*
X164465000Y-91694000D02*
X162941000Y-90170000D01*
X143129000Y-92456000D02*
X143129000Y-100076000D01*
X154178000Y-95631000D02*
X159639000Y-95631000D01*
X152717500Y-88138000D02*
X153479500Y-88900000D01*
X153479500Y-88900000D02*
X153479500Y-94932500D01*
X153479500Y-94932500D02*
X154178000Y-95631000D01*
X146939000Y-88138000D02*
X152717500Y-88138000D01*
X159639000Y-95631000D02*
X161290000Y-97282000D01*
D16*
X133604000Y-85979000D02*
X132397500Y-85979000D01*
X131699000Y-86677500D02*
X131699000Y-87884000D01*
X132397500Y-85979000D02*
X131699000Y-86677500D01*
X131699000Y-89535000D02*
X131699000Y-87884000D01*
X131064000Y-90170000D02*
X129032000Y-90170000D01*
X131699000Y-89535000D02*
X131064000Y-90170000D01*
D17*
X160401000Y-85090000D02*
X160274000Y-85090000D01*
X160274000Y-85090000D02*
X158750000Y-83566000D01*
X158750000Y-83566000D02*
X155067000Y-83566000D01*
X155067000Y-83566000D02*
X148463000Y-76962000D01*
X148463000Y-76962000D02*
X133477000Y-76962000D01*
X133477000Y-76962000D02*
X130746500Y-79692500D01*
X130746500Y-79692500D02*
X130746500Y-84264500D01*
X130746500Y-84264500D02*
X129921000Y-85090000D01*
X129921000Y-85090000D02*
X129032000Y-85090000D01*
X131572000Y-83756500D02*
X131572000Y-85090000D01*
X131572000Y-85090000D02*
X129032000Y-87630000D01*
X137287000Y-86106000D02*
X141097000Y-86106000D01*
X141097000Y-86106000D02*
X143510000Y-88519000D01*
X137287000Y-86106000D02*
X137287000Y-82423000D01*
X131572000Y-82550000D02*
X131572000Y-83756500D01*
X132461000Y-81661000D02*
X131572000Y-82550000D01*
X136525000Y-81661000D02*
X132461000Y-81661000D01*
X137287000Y-82423000D02*
X136525000Y-81661000D01*
X137287000Y-86106000D02*
X137287000Y-88646000D01*
X157099000Y-82042000D02*
X160655000Y-82042000D01*
X161671000Y-86360000D02*
X160401000Y-87630000D01*
X161671000Y-83058000D02*
X161671000Y-86360000D01*
X160655000Y-82042000D02*
X161671000Y-83058000D01*
X164592000Y-81280000D02*
X164592000Y-85979000D01*
X164592000Y-85979000D02*
X162941000Y-87630000D01*
X162306000Y-78994000D02*
X157099000Y-78994000D01*
X164592000Y-81280000D02*
X162306000Y-78994000D01*
X161671000Y-93472000D02*
X161671000Y-91440000D01*
X161671000Y-93472000D02*
X160972500Y-94170500D01*
X160972500Y-94170500D02*
X157797500Y-94170500D01*
X156083000Y-92456000D02*
X157797500Y-94170500D01*
X161671000Y-91440000D02*
X160401000Y-90170000D01*
X160401000Y-90170000D02*
X158750000Y-88519000D01*
X158750000Y-86741000D02*
X157099000Y-85090000D01*
X158750000Y-88519000D02*
X158750000Y-86741000D01*
X162941000Y-92710000D02*
X162941000Y-97853500D01*
X145224500Y-96075500D02*
X145224500Y-86487000D01*
X145224500Y-96075500D02*
X146050000Y-96901000D01*
X146050000Y-96901000D02*
X157734000Y-96901000D01*
X144716500Y-85979000D02*
X145224500Y-86487000D01*
X144716500Y-85979000D02*
X143510000Y-85979000D01*
X159385000Y-98552000D02*
X157734000Y-96901000D01*
X162242500Y-98552000D02*
X159385000Y-98552000D01*
X162941000Y-97853500D02*
X162242500Y-98552000D01*
X143510000Y-83439000D02*
X143510000Y-79502000D01*
X142494000Y-78486000D02*
X143510000Y-79502000D01*
X142494000Y-78486000D02*
X140081000Y-78486000D01*
X137287000Y-78486000D02*
X140081000Y-78486000D01*
M02*
