G04 #@! TF.FileFunction,Soldermask,Top*
%FSLAX46Y46*%
G04 Gerber Fmt 4.6, Leading zero omitted, Abs format (unit mm)*
G04 Created by KiCad (PCBNEW (2015-07-01 BZR 5850)-product) date Mon Jul 20 16:06:04 2015*
%MOMM*%
G01*
G04 APERTURE LIST*
%ADD10C,0.100000*%
%ADD11C,1.524000*%
%ADD12C,1.727200*%
%ADD13O,1.727200X1.727200*%
%ADD14O,1.524000X3.048000*%
%ADD15C,1.998980*%
G04 APERTURE END LIST*
D10*
X165100000Y-77216000D02*
X165100000Y-100584000D01*
X128016000Y-76200000D02*
X164084000Y-76200000D01*
X127000000Y-100584000D02*
X127000000Y-77216000D01*
X164084000Y-101600000D02*
X128016000Y-101600000D01*
X127000000Y-100584000D02*
G75*
G03X128016000Y-101600000I1016000J0D01*
G01*
X128016000Y-76200000D02*
G75*
G03X127000000Y-77216000I0J-1016000D01*
G01*
X165100000Y-77216000D02*
G75*
G03X164084000Y-76200000I-1016000J0D01*
G01*
X164084000Y-101600000D02*
G75*
G03X165100000Y-100584000I0J1016000D01*
G01*
D11*
X134620000Y-92837000D03*
X132080000Y-92837000D03*
X137541000Y-92837000D03*
X140081000Y-92837000D03*
D12*
X161290000Y-99822000D03*
X161290000Y-97282000D03*
D13*
X133604000Y-88519000D03*
X133604000Y-85979000D03*
X133604000Y-83439000D03*
X129032000Y-82550000D03*
X129032000Y-85090000D03*
X129032000Y-87630000D03*
X129032000Y-90170000D03*
X129032000Y-92710000D03*
X129032000Y-95250000D03*
X160401000Y-85090000D03*
X162941000Y-85090000D03*
X160401000Y-87630000D03*
X162941000Y-87630000D03*
X160401000Y-90170000D03*
X162941000Y-90170000D03*
X160401000Y-92710000D03*
X162941000Y-92710000D03*
X143510000Y-88519000D03*
X143510000Y-85979000D03*
X143510000Y-83439000D03*
D12*
X156083000Y-100076000D03*
X151003000Y-100076000D03*
X156083000Y-92456000D03*
X151003000Y-92456000D03*
X143129000Y-92456000D03*
X148209000Y-92456000D03*
X143129000Y-100076000D03*
X148209000Y-100076000D03*
D14*
X138938000Y-98933000D03*
X136398000Y-98933000D03*
X133858000Y-98933000D03*
D12*
X137287000Y-88646000D03*
X137287000Y-78486000D03*
X146939000Y-82042000D03*
X157099000Y-82042000D03*
X146939000Y-78994000D03*
X157099000Y-78994000D03*
X157099000Y-88138000D03*
X146939000Y-88138000D03*
X140081000Y-78486000D03*
X140081000Y-88646000D03*
D15*
X146939000Y-85090000D03*
X157099000Y-85090000D03*
M02*
