G04 #@! TF.FileFunction,Copper,L2,Bot,Signal*
%FSLAX46Y46*%
G04 Gerber Fmt 4.6, Leading zero omitted, Abs format (unit mm)*
G04 Created by KiCad (PCBNEW (2015-03-25 BZR 5536)-product) date 2015 July 22, Wednesday 20:31:06*
%MOMM*%
G01*
G04 APERTURE LIST*
%ADD10C,0.100000*%
%ADD11C,1.524000*%
%ADD12C,1.727200*%
%ADD13O,1.727200X1.727200*%
%ADD14O,1.524000X3.048000*%
%ADD15C,1.998980*%
%ADD16C,0.762000*%
%ADD17C,0.254000*%
G04 APERTURE END LIST*
D10*
X165100000Y-77216000D02*
X165100000Y-100584000D01*
X128016000Y-76200000D02*
X164084000Y-76200000D01*
X127000000Y-100584000D02*
X127000000Y-77216000D01*
X164084000Y-101600000D02*
X128016000Y-101600000D01*
X127000000Y-100584000D02*
G75*
G03X128016000Y-101600000I1016000J0D01*
G01*
X128016000Y-76200000D02*
G75*
G03X127000000Y-77216000I0J-1016000D01*
G01*
X165100000Y-77216000D02*
G75*
G03X164084000Y-76200000I-1016000J0D01*
G01*
X164084000Y-101600000D02*
G75*
G03X165100000Y-100584000I0J1016000D01*
G01*
D11*
X134620000Y-92837000D03*
X132080000Y-92837000D03*
X137541000Y-92837000D03*
X140081000Y-92837000D03*
D12*
X161290000Y-99822000D03*
X161290000Y-97282000D03*
D13*
X133604000Y-88519000D03*
X133604000Y-85979000D03*
X133604000Y-83439000D03*
X129032000Y-82550000D03*
X129032000Y-85090000D03*
X129032000Y-87630000D03*
X129032000Y-90170000D03*
X129032000Y-92710000D03*
X129032000Y-95250000D03*
X160401000Y-85090000D03*
X162941000Y-85090000D03*
X160401000Y-87630000D03*
X162941000Y-87630000D03*
X160401000Y-90170000D03*
X162941000Y-90170000D03*
X160401000Y-92710000D03*
X162941000Y-92710000D03*
X143510000Y-88519000D03*
X143510000Y-85979000D03*
X143510000Y-83439000D03*
D12*
X156083000Y-100076000D03*
X151003000Y-100076000D03*
X156083000Y-92456000D03*
X151003000Y-92456000D03*
X143129000Y-92456000D03*
X148209000Y-92456000D03*
X143129000Y-100076000D03*
X148209000Y-100076000D03*
D14*
X138938000Y-98933000D03*
X136398000Y-98933000D03*
X133858000Y-98933000D03*
D12*
X137287000Y-88646000D03*
X137287000Y-78486000D03*
X146939000Y-82042000D03*
X157099000Y-82042000D03*
X146939000Y-78994000D03*
X157099000Y-78994000D03*
X157099000Y-88138000D03*
X146939000Y-88138000D03*
X140081000Y-78486000D03*
X140081000Y-88646000D03*
D15*
X146939000Y-85090000D03*
X157099000Y-85090000D03*
D16*
X138938000Y-95250000D02*
X140081000Y-95250000D01*
X132080000Y-95250000D02*
X138938000Y-95250000D01*
X129032000Y-95250000D02*
X132080000Y-95250000D01*
X138938000Y-98933000D02*
X138938000Y-95250000D01*
X140081000Y-92837000D02*
X140081000Y-95250000D01*
X132080000Y-92837000D02*
X132080000Y-95250000D01*
X140081000Y-92837000D02*
X140081000Y-88646000D01*
X151003000Y-100076000D02*
X148209000Y-100076000D01*
X148209000Y-95250000D02*
X148209000Y-92456000D01*
X148209000Y-100076000D02*
X148209000Y-95250000D01*
X148209000Y-92456000D02*
X151003000Y-92456000D01*
X140081000Y-95250000D02*
X148209000Y-95250000D01*
X149225000Y-89598500D02*
X148209000Y-90614500D01*
X148209000Y-90614500D02*
X148209000Y-92456000D01*
X162941000Y-85090000D02*
X162941000Y-78740000D01*
X152908000Y-77089000D02*
X149225000Y-80772000D01*
X161290000Y-77089000D02*
X152908000Y-77089000D01*
X162941000Y-78740000D02*
X161290000Y-77089000D01*
X149225000Y-80772000D02*
X149225000Y-89598500D01*
X143637000Y-78994000D02*
X139192000Y-83439000D01*
X139192000Y-83439000D02*
X133604000Y-83439000D01*
X146939000Y-78994000D02*
X143637000Y-78994000D01*
D17*
G36*
X158623000Y-84498212D02*
X158485462Y-84165345D01*
X158026073Y-83705154D01*
X157513384Y-83492267D01*
X157946780Y-83313192D01*
X158368710Y-82891997D01*
X158597339Y-82341398D01*
X158597859Y-81745218D01*
X158370192Y-81194220D01*
X157948997Y-80772290D01*
X157398398Y-80543661D01*
X156802218Y-80543141D01*
X156251220Y-80770808D01*
X155829290Y-81192003D01*
X155600661Y-81742602D01*
X155600141Y-82338782D01*
X155827808Y-82889780D01*
X156249003Y-83311710D01*
X156684744Y-83492646D01*
X156174345Y-83703538D01*
X155714154Y-84162927D01*
X155464794Y-84763453D01*
X155464226Y-85413694D01*
X155712538Y-86014655D01*
X156171927Y-86474846D01*
X156684616Y-86687733D01*
X156251220Y-86866808D01*
X155829290Y-87288003D01*
X155600661Y-87838602D01*
X155600141Y-88434782D01*
X155827808Y-88985780D01*
X156249003Y-89407710D01*
X156799602Y-89636339D01*
X157395782Y-89636859D01*
X157946780Y-89409192D01*
X158368710Y-88987997D01*
X158597339Y-88437398D01*
X158597859Y-87841218D01*
X158370192Y-87290220D01*
X157948997Y-86868290D01*
X157513256Y-86687354D01*
X158023655Y-86476462D01*
X158483846Y-86017073D01*
X158623000Y-85681953D01*
X158623000Y-100915000D01*
X157357276Y-100915000D01*
X157581339Y-100375398D01*
X157581859Y-99779218D01*
X157354192Y-99228220D01*
X156932997Y-98806290D01*
X156382398Y-98577661D01*
X155786218Y-98577141D01*
X155235220Y-98804808D01*
X154813290Y-99226003D01*
X154584661Y-99776602D01*
X154584141Y-100372782D01*
X154808180Y-100915000D01*
X152165364Y-100915000D01*
X152309516Y-100868259D01*
X152513248Y-100307970D01*
X152487058Y-99712365D01*
X152309516Y-99283741D01*
X152056805Y-99201800D01*
X151182605Y-100076000D01*
X151196748Y-100090143D01*
X151017143Y-100269748D01*
X151003000Y-100255605D01*
X150988858Y-100269748D01*
X150809253Y-100090143D01*
X150823395Y-100076000D01*
X150643790Y-99896395D01*
X151003000Y-99896395D01*
X151877200Y-99022195D01*
X151795259Y-98769484D01*
X151234970Y-98565752D01*
X150639365Y-98591942D01*
X148512996Y-98591942D01*
X148440970Y-98565752D01*
X147845365Y-98591942D01*
X147416741Y-98769484D01*
X147334800Y-99022195D01*
X148209000Y-99896395D01*
X149083200Y-99022195D01*
X149001259Y-98769484D01*
X148512996Y-98591942D01*
X150639365Y-98591942D01*
X148512996Y-98591942D01*
X148512996Y-98591942D01*
X150639365Y-98591942D01*
X150210741Y-98769484D01*
X150128800Y-99022195D01*
X151003000Y-99896395D01*
X150643790Y-99896395D01*
X149949195Y-99201800D01*
X149696484Y-99283741D01*
X149611886Y-99516398D01*
X149515516Y-99283741D01*
X149262805Y-99201800D01*
X148388605Y-100076000D01*
X148402748Y-100090143D01*
X148223143Y-100269748D01*
X148209000Y-100255605D01*
X148194858Y-100269748D01*
X148015253Y-100090143D01*
X148029395Y-100076000D01*
X147155195Y-99201800D01*
X146902484Y-99283741D01*
X146698752Y-99844030D01*
X146724942Y-100439635D01*
X146902484Y-100868259D01*
X147046636Y-100915000D01*
X144403276Y-100915000D01*
X144627339Y-100375398D01*
X144627859Y-99779218D01*
X144400192Y-99228220D01*
X143978997Y-98806290D01*
X143428398Y-98577661D01*
X142832218Y-98577141D01*
X142281220Y-98804808D01*
X141859290Y-99226003D01*
X141630661Y-99776602D01*
X141630141Y-100372782D01*
X141854180Y-100915000D01*
X139574419Y-100915000D01*
X139836026Y-100772630D01*
X140180059Y-100346941D01*
X140335000Y-99822000D01*
X140335000Y-99060000D01*
X139065000Y-99060000D01*
X139065000Y-99080000D01*
X138811000Y-99080000D01*
X138811000Y-99060000D01*
X138791000Y-99060000D01*
X138791000Y-98806000D01*
X138811000Y-98806000D01*
X138811000Y-96939280D01*
X139065000Y-96939280D01*
X139065000Y-98806000D01*
X140335000Y-98806000D01*
X140335000Y-98044000D01*
X140180059Y-97519059D01*
X139836026Y-97093370D01*
X139355277Y-96831740D01*
X139281070Y-96816780D01*
X139065000Y-96939280D01*
X138811000Y-96939280D01*
X138811000Y-96939280D01*
X138594930Y-96816780D01*
X138520723Y-96831740D01*
X138039974Y-97093370D01*
X137695941Y-97519059D01*
X137678349Y-97578662D01*
X137385828Y-97140875D01*
X136932609Y-96838043D01*
X136398000Y-96731703D01*
X135863391Y-96838043D01*
X135410172Y-97140875D01*
X135128000Y-97563174D01*
X134845828Y-97140875D01*
X134392609Y-96838043D01*
X133858000Y-96731703D01*
X133323391Y-96838043D01*
X132870172Y-97140875D01*
X132567340Y-97594094D01*
X132461000Y-98128703D01*
X132461000Y-99737297D01*
X132567340Y-100271906D01*
X132870172Y-100725125D01*
X133154339Y-100915000D01*
X128083466Y-100915000D01*
X127894469Y-100877406D01*
X127791437Y-100808563D01*
X127722594Y-100705531D01*
X127685000Y-100516534D01*
X127685000Y-95839395D01*
X127825179Y-96138490D01*
X128257053Y-96532688D01*
X128672974Y-96704958D01*
X128905000Y-96583817D01*
X128905000Y-95377000D01*
X129159000Y-95377000D01*
X129159000Y-96583817D01*
X129391026Y-96704958D01*
X129806947Y-96532688D01*
X130238821Y-96138490D01*
X130486968Y-95609027D01*
X130366469Y-95377000D01*
X129159000Y-95377000D01*
X128905000Y-95377000D01*
X128905000Y-95377000D01*
X128885000Y-95377000D01*
X128885000Y-95123000D01*
X128905000Y-95123000D01*
X128905000Y-95103000D01*
X129159000Y-95103000D01*
X129159000Y-95123000D01*
X130366469Y-95123000D01*
X130486968Y-94890973D01*
X130238821Y-94361510D01*
X129820839Y-93979992D01*
X130064455Y-93817213D01*
X131279392Y-93817213D01*
X131348857Y-94059397D01*
X131872302Y-94246144D01*
X139873302Y-94246144D01*
X140428368Y-94218362D01*
X140812143Y-94059397D01*
X140838860Y-93966248D01*
X147977030Y-93966248D01*
X148572635Y-93940058D01*
X149001259Y-93762516D01*
X149083200Y-93509805D01*
X150128800Y-93509805D01*
X149083200Y-93509805D01*
X149083200Y-93509805D01*
X150128800Y-93509805D01*
X150210741Y-93762516D01*
X150771030Y-93966248D01*
X151366635Y-93940058D01*
X151795259Y-93762516D01*
X151807193Y-93725710D01*
X155233003Y-93725710D01*
X155783602Y-93954339D01*
X156379782Y-93954859D01*
X156930780Y-93727192D01*
X157352710Y-93305997D01*
X157581339Y-92755398D01*
X157581859Y-92159218D01*
X157354192Y-91608220D01*
X156932997Y-91186290D01*
X156382398Y-90957661D01*
X155786218Y-90957141D01*
X155235220Y-91184808D01*
X151806713Y-91184808D01*
X151795259Y-91149484D01*
X151234970Y-90945752D01*
X150639365Y-90971942D01*
X150210741Y-91149484D01*
X150128800Y-91402195D01*
X151003000Y-92276395D01*
X151877200Y-91402195D01*
X151806713Y-91184808D01*
X155235220Y-91184808D01*
X151806713Y-91184808D01*
X151806713Y-91184808D01*
X155235220Y-91184808D01*
X154813290Y-91606003D01*
X152131449Y-91606003D01*
X152056805Y-91581800D01*
X151182605Y-92456000D01*
X152056805Y-93330200D01*
X152309516Y-93248259D01*
X152513248Y-92687970D01*
X152487058Y-92092365D01*
X152309516Y-91663741D01*
X152131449Y-91606003D01*
X154813290Y-91606003D01*
X152131449Y-91606003D01*
X152131449Y-91606003D01*
X154813290Y-91606003D01*
X154584661Y-92156602D01*
X154584141Y-92752782D01*
X154811808Y-93303780D01*
X155233003Y-93725710D01*
X151807193Y-93725710D01*
X151877200Y-93509805D01*
X151003000Y-92635605D01*
X150643790Y-92635605D01*
X150823395Y-92456000D01*
X149949195Y-91581800D01*
X149696484Y-91663741D01*
X149611886Y-91896398D01*
X149515516Y-91663741D01*
X149262805Y-91581800D01*
X148388605Y-92456000D01*
X149262805Y-93330200D01*
X149515516Y-93248259D01*
X149600114Y-93015602D01*
X149696484Y-93248259D01*
X149949195Y-93330200D01*
X150643790Y-92635605D01*
X151003000Y-92635605D01*
X150643790Y-92635605D01*
X150643790Y-92635605D01*
X151003000Y-92635605D01*
X150128800Y-93509805D01*
X149083200Y-93509805D01*
X149083200Y-93509805D01*
X148209000Y-92635605D01*
X147334800Y-93509805D01*
X144194546Y-93509805D01*
X144398710Y-93305997D01*
X144627339Y-92755398D01*
X144627859Y-92159218D01*
X144423133Y-91663741D01*
X146902484Y-91663741D01*
X146698752Y-92224030D01*
X146724942Y-92819635D01*
X146902484Y-93248259D01*
X147155195Y-93330200D01*
X148029395Y-92456000D01*
X147155195Y-91581800D01*
X146902484Y-91663741D01*
X144423133Y-91663741D01*
X144400192Y-91608220D01*
X143978997Y-91186290D01*
X143462791Y-90971942D01*
X147845365Y-90971942D01*
X147416741Y-91149484D01*
X147334800Y-91402195D01*
X148209000Y-92276395D01*
X149083200Y-91402195D01*
X149001259Y-91149484D01*
X148440970Y-90945752D01*
X147845365Y-90971942D01*
X143462791Y-90971942D01*
X143428398Y-90957661D01*
X142832218Y-90957141D01*
X142281220Y-91184808D01*
X141859290Y-91606003D01*
X141630661Y-92156602D01*
X141630141Y-92752782D01*
X141857808Y-93303780D01*
X142279003Y-93725710D01*
X142829602Y-93954339D01*
X143425782Y-93954859D01*
X143976780Y-93727192D01*
X144194546Y-93509805D01*
X147334800Y-93509805D01*
X144194546Y-93509805D01*
X144194546Y-93509805D01*
X147334800Y-93509805D01*
X147416741Y-93762516D01*
X147977030Y-93966248D01*
X140838860Y-93966248D01*
X140881608Y-93817213D01*
X140081000Y-93016605D01*
X139280392Y-93817213D01*
X138536457Y-93817213D01*
X138724629Y-93629370D01*
X138804395Y-93437273D01*
X138858603Y-93568143D01*
X139100787Y-93637608D01*
X139901395Y-92837000D01*
X140260605Y-92837000D01*
X141061213Y-93637608D01*
X141303397Y-93568143D01*
X141490144Y-93044698D01*
X141462362Y-92489632D01*
X141303397Y-92105857D01*
X141061213Y-92036392D01*
X140260605Y-92837000D01*
X139901395Y-92837000D01*
X139901395Y-92837000D01*
X139100787Y-92036392D01*
X138858603Y-92105857D01*
X138808491Y-92246318D01*
X138726010Y-92046697D01*
X138333370Y-91653371D01*
X137857176Y-91455638D01*
X139733632Y-91455638D01*
X139349857Y-91614603D01*
X139280392Y-91856787D01*
X140081000Y-92657395D01*
X140881608Y-91856787D01*
X140812143Y-91614603D01*
X140288698Y-91427856D01*
X139733632Y-91455638D01*
X137857176Y-91455638D01*
X137820100Y-91440243D01*
X137264339Y-91439758D01*
X136750697Y-91651990D01*
X136357371Y-92044630D01*
X136144243Y-92557900D01*
X136143758Y-93113661D01*
X136355990Y-93627303D01*
X136748630Y-94020629D01*
X137261900Y-94233757D01*
X137817661Y-94234242D01*
X138331303Y-94022010D01*
X138536457Y-93817213D01*
X139280392Y-93817213D01*
X138536457Y-93817213D01*
X138536457Y-93817213D01*
X139280392Y-93817213D01*
X139349857Y-94059397D01*
X139873302Y-94246144D01*
X131872302Y-94246144D01*
X131872302Y-94246144D01*
X132427368Y-94218362D01*
X132811143Y-94059397D01*
X132880608Y-93817213D01*
X132701003Y-93637608D01*
X133060213Y-93637608D01*
X133302397Y-93568143D01*
X133352509Y-93427682D01*
X133434990Y-93627303D01*
X133827630Y-94020629D01*
X134340900Y-94233757D01*
X134896661Y-94234242D01*
X135410303Y-94022010D01*
X135803629Y-93629370D01*
X136016757Y-93116100D01*
X136017242Y-92560339D01*
X135805010Y-92046697D01*
X135412370Y-91653371D01*
X134899100Y-91440243D01*
X134343339Y-91439758D01*
X133829697Y-91651990D01*
X132821867Y-91651990D01*
X132811143Y-91614603D01*
X132287698Y-91427856D01*
X131732632Y-91455638D01*
X131348857Y-91614603D01*
X131279392Y-91856787D01*
X132080000Y-92657395D01*
X132880608Y-91856787D01*
X132821867Y-91651990D01*
X133829697Y-91651990D01*
X132821867Y-91651990D01*
X132821867Y-91651990D01*
X133829697Y-91651990D01*
X133436371Y-92044630D01*
X133356605Y-92236727D01*
X133302397Y-92105857D01*
X133060213Y-92036392D01*
X132259605Y-92837000D01*
X131900395Y-92837000D01*
X131900395Y-92837000D01*
X131099787Y-92036392D01*
X130857603Y-92105857D01*
X130670856Y-92629302D01*
X130698638Y-93184368D01*
X130857603Y-93568143D01*
X131099787Y-93637608D01*
X131900395Y-92837000D01*
X132259605Y-92837000D01*
X131900395Y-92837000D01*
X131900395Y-92837000D01*
X132259605Y-92837000D01*
X133060213Y-93637608D01*
X132701003Y-93637608D01*
X132080000Y-93016605D01*
X131279392Y-93817213D01*
X130064455Y-93817213D01*
X130091670Y-93799029D01*
X130416526Y-93312848D01*
X130530600Y-92739359D01*
X130530600Y-92680641D01*
X130416526Y-92107152D01*
X130091670Y-91620971D01*
X129820828Y-91440000D01*
X130091670Y-91259029D01*
X130416526Y-90772848D01*
X130530600Y-90199359D01*
X130530600Y-90156248D01*
X139849030Y-90156248D01*
X140444635Y-90130058D01*
X140873259Y-89952516D01*
X140955200Y-89699805D01*
X140863424Y-89608029D01*
X142450330Y-89608029D01*
X142936511Y-89932885D01*
X143510000Y-90046959D01*
X144083489Y-89932885D01*
X144569670Y-89608029D01*
X144894526Y-89121848D01*
X145008600Y-88548359D01*
X145008600Y-88489641D01*
X144894526Y-87916152D01*
X144569670Y-87429971D01*
X144298828Y-87249000D01*
X144569670Y-87068029D01*
X144894526Y-86581848D01*
X145008600Y-86008359D01*
X145008600Y-85949641D01*
X144894526Y-85376152D01*
X144569670Y-84889971D01*
X144298828Y-84709000D01*
X144569670Y-84528029D01*
X144894526Y-84041848D01*
X145008600Y-83468359D01*
X145008600Y-83409641D01*
X144894526Y-82836152D01*
X144569670Y-82349971D01*
X144083489Y-82025115D01*
X143510000Y-81911041D01*
X142936511Y-82025115D01*
X142042725Y-82025115D01*
X143297032Y-80770808D01*
X146091220Y-80770808D01*
X145669290Y-81192003D01*
X145440661Y-81742602D01*
X145440141Y-82338782D01*
X145667808Y-82889780D01*
X146089003Y-83311710D01*
X146524744Y-83492646D01*
X146014345Y-83703538D01*
X145554154Y-84162927D01*
X145304794Y-84763453D01*
X145304226Y-85413694D01*
X145552538Y-86014655D01*
X146011927Y-86474846D01*
X146524616Y-86687733D01*
X146091220Y-86866808D01*
X145669290Y-87288003D01*
X145440661Y-87838602D01*
X145440141Y-88434782D01*
X145667808Y-88985780D01*
X146089003Y-89407710D01*
X146639602Y-89636339D01*
X147235782Y-89636859D01*
X147786780Y-89409192D01*
X148208710Y-88987997D01*
X148437339Y-88437398D01*
X148437859Y-87841218D01*
X148210192Y-87290220D01*
X147788997Y-86868290D01*
X147353256Y-86687354D01*
X147863655Y-86476462D01*
X148323846Y-86017073D01*
X148573206Y-85416547D01*
X148573774Y-84766306D01*
X148325462Y-84165345D01*
X147866073Y-83705154D01*
X147353384Y-83492267D01*
X147786780Y-83313192D01*
X148208710Y-82891997D01*
X148437339Y-82341398D01*
X148437859Y-81745218D01*
X148210192Y-81194220D01*
X147788997Y-80772290D01*
X147238398Y-80543661D01*
X146642218Y-80543141D01*
X146091220Y-80770808D01*
X143297032Y-80770808D01*
X144057841Y-80010000D01*
X145835735Y-80010000D01*
X146089003Y-80263710D01*
X146639602Y-80492339D01*
X147235782Y-80492859D01*
X147786780Y-80265192D01*
X148208710Y-79843997D01*
X148437339Y-79293398D01*
X148437859Y-78697218D01*
X148210192Y-78146220D01*
X147788997Y-77724290D01*
X147785428Y-77722808D01*
X156251220Y-77722808D01*
X155829290Y-78144003D01*
X155600661Y-78694602D01*
X155600141Y-79290782D01*
X155827808Y-79841780D01*
X156249003Y-80263710D01*
X156799602Y-80492339D01*
X157395782Y-80492859D01*
X157946780Y-80265192D01*
X158368710Y-79843997D01*
X158597339Y-79293398D01*
X158597859Y-78697218D01*
X158370192Y-78146220D01*
X157948997Y-77724290D01*
X157398398Y-77495661D01*
X156802218Y-77495141D01*
X156251220Y-77722808D01*
X147785428Y-77722808D01*
X147238398Y-77495661D01*
X146642218Y-77495141D01*
X146091220Y-77722808D01*
X145835583Y-77978000D01*
X143637000Y-77978000D01*
X143248194Y-78055338D01*
X143248192Y-78055339D01*
X143248193Y-78055339D01*
X142918579Y-78275580D01*
X138771160Y-82423000D01*
X134712466Y-82423000D01*
X134663670Y-82349971D01*
X134177489Y-82025115D01*
X133604000Y-81911041D01*
X133030511Y-82025115D01*
X132544330Y-82349971D01*
X132219474Y-82836152D01*
X132105400Y-83409641D01*
X132105400Y-83468359D01*
X132219474Y-84041848D01*
X132544330Y-84528029D01*
X132815172Y-84709000D01*
X132544330Y-84889971D01*
X132219474Y-85376152D01*
X132105400Y-85949641D01*
X132105400Y-86008359D01*
X132219474Y-86581848D01*
X132544330Y-87068029D01*
X132815172Y-87249000D01*
X132544330Y-87429971D01*
X132219474Y-87916152D01*
X132105400Y-88489641D01*
X132105400Y-88548359D01*
X132219474Y-89121848D01*
X132544330Y-89608029D01*
X133030511Y-89932885D01*
X133604000Y-90046959D01*
X134177489Y-89932885D01*
X134663670Y-89608029D01*
X134988526Y-89121848D01*
X135102600Y-88548359D01*
X135102600Y-88489641D01*
X134988526Y-87916152D01*
X134663670Y-87429971D01*
X134392828Y-87249000D01*
X134663670Y-87068029D01*
X134988526Y-86581848D01*
X135102600Y-86008359D01*
X135102600Y-85949641D01*
X134988526Y-85376152D01*
X134663670Y-84889971D01*
X134392828Y-84709000D01*
X134663670Y-84528029D01*
X134712466Y-84455000D01*
X139192000Y-84455000D01*
X139516300Y-84390493D01*
X139580807Y-84377662D01*
X139910420Y-84157420D01*
X142042725Y-82025115D01*
X142936511Y-82025115D01*
X142042725Y-82025115D01*
X142042725Y-82025115D01*
X142936511Y-82025115D01*
X142450330Y-82349971D01*
X142125474Y-82836152D01*
X142011400Y-83409641D01*
X142011400Y-83468359D01*
X142125474Y-84041848D01*
X142450330Y-84528029D01*
X142721172Y-84709000D01*
X142450330Y-84889971D01*
X142125474Y-85376152D01*
X142011400Y-85949641D01*
X142011400Y-86008359D01*
X142125474Y-86581848D01*
X142450330Y-87068029D01*
X142721172Y-87249000D01*
X140624417Y-87249000D01*
X140312970Y-87135752D01*
X139717365Y-87161942D01*
X139288741Y-87339484D01*
X139206800Y-87592195D01*
X140081000Y-88466395D01*
X140955200Y-87592195D01*
X140873259Y-87339484D01*
X140624417Y-87249000D01*
X142721172Y-87249000D01*
X140624417Y-87249000D01*
X140624417Y-87249000D01*
X142721172Y-87249000D01*
X142450330Y-87429971D01*
X142125474Y-87916152D01*
X141413368Y-87916152D01*
X141387516Y-87853741D01*
X141134805Y-87771800D01*
X140260605Y-88646000D01*
X141134805Y-89520200D01*
X141387516Y-89438259D01*
X141591248Y-88877970D01*
X141565058Y-88282365D01*
X141413368Y-87916152D01*
X142125474Y-87916152D01*
X141413368Y-87916152D01*
X141413368Y-87916152D01*
X142125474Y-87916152D01*
X142011400Y-88489641D01*
X142011400Y-88548359D01*
X142125474Y-89121848D01*
X142450330Y-89608029D01*
X140863424Y-89608029D01*
X140081000Y-88825605D01*
X139206800Y-89699805D01*
X138352546Y-89699805D01*
X138556710Y-89495997D01*
X138677704Y-89204612D01*
X138774484Y-89438259D01*
X139027195Y-89520200D01*
X139901395Y-88646000D01*
X139027195Y-87771800D01*
X138774484Y-87853741D01*
X138683978Y-88102645D01*
X138558192Y-87798220D01*
X138136997Y-87376290D01*
X137586398Y-87147661D01*
X136990218Y-87147141D01*
X136439220Y-87374808D01*
X136017290Y-87796003D01*
X135788661Y-88346602D01*
X135788141Y-88942782D01*
X136015808Y-89493780D01*
X136437003Y-89915710D01*
X136987602Y-90144339D01*
X137583782Y-90144859D01*
X138134780Y-89917192D01*
X138352546Y-89699805D01*
X139206800Y-89699805D01*
X138352546Y-89699805D01*
X138352546Y-89699805D01*
X139206800Y-89699805D01*
X139288741Y-89952516D01*
X139849030Y-90156248D01*
X130530600Y-90156248D01*
X130530600Y-90140641D01*
X130416526Y-89567152D01*
X130091670Y-89080971D01*
X129820828Y-88900000D01*
X130091670Y-88719029D01*
X130416526Y-88232848D01*
X130530600Y-87659359D01*
X130530600Y-87600641D01*
X130416526Y-87027152D01*
X130091670Y-86540971D01*
X129820828Y-86360000D01*
X130091670Y-86179029D01*
X130416526Y-85692848D01*
X130530600Y-85119359D01*
X130530600Y-85060641D01*
X130416526Y-84487152D01*
X130091670Y-84000971D01*
X129820828Y-83820000D01*
X130091670Y-83639029D01*
X130416526Y-83152848D01*
X130530600Y-82579359D01*
X130530600Y-82520641D01*
X130416526Y-81947152D01*
X130091670Y-81460971D01*
X129605489Y-81136115D01*
X129032000Y-81022041D01*
X128458511Y-81136115D01*
X127972330Y-81460971D01*
X127685000Y-81890990D01*
X127685000Y-77283466D01*
X127722594Y-77094469D01*
X127791437Y-76991437D01*
X127797866Y-76987141D01*
X136990218Y-76987141D01*
X136439220Y-77214808D01*
X136017290Y-77636003D01*
X135788661Y-78186602D01*
X135788141Y-78782782D01*
X136015808Y-79333780D01*
X136437003Y-79755710D01*
X136987602Y-79984339D01*
X137583782Y-79984859D01*
X138134780Y-79757192D01*
X138556710Y-79335997D01*
X138684031Y-79029375D01*
X138809808Y-79333780D01*
X139231003Y-79755710D01*
X139781602Y-79984339D01*
X140377782Y-79984859D01*
X140928780Y-79757192D01*
X141350710Y-79335997D01*
X141579339Y-78785398D01*
X141579859Y-78189218D01*
X141352192Y-77638220D01*
X140930997Y-77216290D01*
X140380398Y-76987661D01*
X139784218Y-76987141D01*
X139233220Y-77214808D01*
X138811290Y-77636003D01*
X138683969Y-77942625D01*
X138558192Y-77638220D01*
X138136997Y-77216290D01*
X137586398Y-76987661D01*
X136990218Y-76987141D01*
X127797866Y-76987141D01*
X127894469Y-76922594D01*
X128083466Y-76885000D01*
X158623000Y-76885000D01*
X158623000Y-84498212D01*
X158623000Y-84498212D01*
G37*
X158623000Y-84498212D02*
X158485462Y-84165345D01*
X158026073Y-83705154D01*
X157513384Y-83492267D01*
X157946780Y-83313192D01*
X158368710Y-82891997D01*
X158597339Y-82341398D01*
X158597859Y-81745218D01*
X158370192Y-81194220D01*
X157948997Y-80772290D01*
X157398398Y-80543661D01*
X156802218Y-80543141D01*
X156251220Y-80770808D01*
X155829290Y-81192003D01*
X155600661Y-81742602D01*
X155600141Y-82338782D01*
X155827808Y-82889780D01*
X156249003Y-83311710D01*
X156684744Y-83492646D01*
X156174345Y-83703538D01*
X155714154Y-84162927D01*
X155464794Y-84763453D01*
X155464226Y-85413694D01*
X155712538Y-86014655D01*
X156171927Y-86474846D01*
X156684616Y-86687733D01*
X156251220Y-86866808D01*
X155829290Y-87288003D01*
X155600661Y-87838602D01*
X155600141Y-88434782D01*
X155827808Y-88985780D01*
X156249003Y-89407710D01*
X156799602Y-89636339D01*
X157395782Y-89636859D01*
X157946780Y-89409192D01*
X158368710Y-88987997D01*
X158597339Y-88437398D01*
X158597859Y-87841218D01*
X158370192Y-87290220D01*
X157948997Y-86868290D01*
X157513256Y-86687354D01*
X158023655Y-86476462D01*
X158483846Y-86017073D01*
X158623000Y-85681953D01*
X158623000Y-100915000D01*
X157357276Y-100915000D01*
X157581339Y-100375398D01*
X157581859Y-99779218D01*
X157354192Y-99228220D01*
X156932997Y-98806290D01*
X156382398Y-98577661D01*
X155786218Y-98577141D01*
X155235220Y-98804808D01*
X154813290Y-99226003D01*
X154584661Y-99776602D01*
X154584141Y-100372782D01*
X154808180Y-100915000D01*
X152165364Y-100915000D01*
X152309516Y-100868259D01*
X152513248Y-100307970D01*
X152487058Y-99712365D01*
X152309516Y-99283741D01*
X152056805Y-99201800D01*
X151182605Y-100076000D01*
X151196748Y-100090143D01*
X151017143Y-100269748D01*
X151003000Y-100255605D01*
X150988858Y-100269748D01*
X150809253Y-100090143D01*
X150823395Y-100076000D01*
X150643790Y-99896395D01*
X151003000Y-99896395D01*
X151877200Y-99022195D01*
X151795259Y-98769484D01*
X151234970Y-98565752D01*
X150639365Y-98591942D01*
X148512996Y-98591942D01*
X148440970Y-98565752D01*
X147845365Y-98591942D01*
X147416741Y-98769484D01*
X147334800Y-99022195D01*
X148209000Y-99896395D01*
X149083200Y-99022195D01*
X149001259Y-98769484D01*
X148512996Y-98591942D01*
X150639365Y-98591942D01*
X148512996Y-98591942D01*
X148512996Y-98591942D01*
X150639365Y-98591942D01*
X150210741Y-98769484D01*
X150128800Y-99022195D01*
X151003000Y-99896395D01*
X150643790Y-99896395D01*
X149949195Y-99201800D01*
X149696484Y-99283741D01*
X149611886Y-99516398D01*
X149515516Y-99283741D01*
X149262805Y-99201800D01*
X148388605Y-100076000D01*
X148402748Y-100090143D01*
X148223143Y-100269748D01*
X148209000Y-100255605D01*
X148194858Y-100269748D01*
X148015253Y-100090143D01*
X148029395Y-100076000D01*
X147155195Y-99201800D01*
X146902484Y-99283741D01*
X146698752Y-99844030D01*
X146724942Y-100439635D01*
X146902484Y-100868259D01*
X147046636Y-100915000D01*
X144403276Y-100915000D01*
X144627339Y-100375398D01*
X144627859Y-99779218D01*
X144400192Y-99228220D01*
X143978997Y-98806290D01*
X143428398Y-98577661D01*
X142832218Y-98577141D01*
X142281220Y-98804808D01*
X141859290Y-99226003D01*
X141630661Y-99776602D01*
X141630141Y-100372782D01*
X141854180Y-100915000D01*
X139574419Y-100915000D01*
X139836026Y-100772630D01*
X140180059Y-100346941D01*
X140335000Y-99822000D01*
X140335000Y-99060000D01*
X139065000Y-99060000D01*
X139065000Y-99080000D01*
X138811000Y-99080000D01*
X138811000Y-99060000D01*
X138791000Y-99060000D01*
X138791000Y-98806000D01*
X138811000Y-98806000D01*
X138811000Y-96939280D01*
X139065000Y-96939280D01*
X139065000Y-98806000D01*
X140335000Y-98806000D01*
X140335000Y-98044000D01*
X140180059Y-97519059D01*
X139836026Y-97093370D01*
X139355277Y-96831740D01*
X139281070Y-96816780D01*
X139065000Y-96939280D01*
X138811000Y-96939280D01*
X138811000Y-96939280D01*
X138594930Y-96816780D01*
X138520723Y-96831740D01*
X138039974Y-97093370D01*
X137695941Y-97519059D01*
X137678349Y-97578662D01*
X137385828Y-97140875D01*
X136932609Y-96838043D01*
X136398000Y-96731703D01*
X135863391Y-96838043D01*
X135410172Y-97140875D01*
X135128000Y-97563174D01*
X134845828Y-97140875D01*
X134392609Y-96838043D01*
X133858000Y-96731703D01*
X133323391Y-96838043D01*
X132870172Y-97140875D01*
X132567340Y-97594094D01*
X132461000Y-98128703D01*
X132461000Y-99737297D01*
X132567340Y-100271906D01*
X132870172Y-100725125D01*
X133154339Y-100915000D01*
X128083466Y-100915000D01*
X127894469Y-100877406D01*
X127791437Y-100808563D01*
X127722594Y-100705531D01*
X127685000Y-100516534D01*
X127685000Y-95839395D01*
X127825179Y-96138490D01*
X128257053Y-96532688D01*
X128672974Y-96704958D01*
X128905000Y-96583817D01*
X128905000Y-95377000D01*
X129159000Y-95377000D01*
X129159000Y-96583817D01*
X129391026Y-96704958D01*
X129806947Y-96532688D01*
X130238821Y-96138490D01*
X130486968Y-95609027D01*
X130366469Y-95377000D01*
X129159000Y-95377000D01*
X128905000Y-95377000D01*
X128905000Y-95377000D01*
X128885000Y-95377000D01*
X128885000Y-95123000D01*
X128905000Y-95123000D01*
X128905000Y-95103000D01*
X129159000Y-95103000D01*
X129159000Y-95123000D01*
X130366469Y-95123000D01*
X130486968Y-94890973D01*
X130238821Y-94361510D01*
X129820839Y-93979992D01*
X130064455Y-93817213D01*
X131279392Y-93817213D01*
X131348857Y-94059397D01*
X131872302Y-94246144D01*
X139873302Y-94246144D01*
X140428368Y-94218362D01*
X140812143Y-94059397D01*
X140838860Y-93966248D01*
X147977030Y-93966248D01*
X148572635Y-93940058D01*
X149001259Y-93762516D01*
X149083200Y-93509805D01*
X150128800Y-93509805D01*
X149083200Y-93509805D01*
X149083200Y-93509805D01*
X150128800Y-93509805D01*
X150210741Y-93762516D01*
X150771030Y-93966248D01*
X151366635Y-93940058D01*
X151795259Y-93762516D01*
X151807193Y-93725710D01*
X155233003Y-93725710D01*
X155783602Y-93954339D01*
X156379782Y-93954859D01*
X156930780Y-93727192D01*
X157352710Y-93305997D01*
X157581339Y-92755398D01*
X157581859Y-92159218D01*
X157354192Y-91608220D01*
X156932997Y-91186290D01*
X156382398Y-90957661D01*
X155786218Y-90957141D01*
X155235220Y-91184808D01*
X151806713Y-91184808D01*
X151795259Y-91149484D01*
X151234970Y-90945752D01*
X150639365Y-90971942D01*
X150210741Y-91149484D01*
X150128800Y-91402195D01*
X151003000Y-92276395D01*
X151877200Y-91402195D01*
X151806713Y-91184808D01*
X155235220Y-91184808D01*
X151806713Y-91184808D01*
X151806713Y-91184808D01*
X155235220Y-91184808D01*
X154813290Y-91606003D01*
X152131449Y-91606003D01*
X152056805Y-91581800D01*
X151182605Y-92456000D01*
X152056805Y-93330200D01*
X152309516Y-93248259D01*
X152513248Y-92687970D01*
X152487058Y-92092365D01*
X152309516Y-91663741D01*
X152131449Y-91606003D01*
X154813290Y-91606003D01*
X152131449Y-91606003D01*
X152131449Y-91606003D01*
X154813290Y-91606003D01*
X154584661Y-92156602D01*
X154584141Y-92752782D01*
X154811808Y-93303780D01*
X155233003Y-93725710D01*
X151807193Y-93725710D01*
X151877200Y-93509805D01*
X151003000Y-92635605D01*
X150643790Y-92635605D01*
X150823395Y-92456000D01*
X149949195Y-91581800D01*
X149696484Y-91663741D01*
X149611886Y-91896398D01*
X149515516Y-91663741D01*
X149262805Y-91581800D01*
X148388605Y-92456000D01*
X149262805Y-93330200D01*
X149515516Y-93248259D01*
X149600114Y-93015602D01*
X149696484Y-93248259D01*
X149949195Y-93330200D01*
X150643790Y-92635605D01*
X151003000Y-92635605D01*
X150643790Y-92635605D01*
X150643790Y-92635605D01*
X151003000Y-92635605D01*
X150128800Y-93509805D01*
X149083200Y-93509805D01*
X149083200Y-93509805D01*
X148209000Y-92635605D01*
X147334800Y-93509805D01*
X144194546Y-93509805D01*
X144398710Y-93305997D01*
X144627339Y-92755398D01*
X144627859Y-92159218D01*
X144423133Y-91663741D01*
X146902484Y-91663741D01*
X146698752Y-92224030D01*
X146724942Y-92819635D01*
X146902484Y-93248259D01*
X147155195Y-93330200D01*
X148029395Y-92456000D01*
X147155195Y-91581800D01*
X146902484Y-91663741D01*
X144423133Y-91663741D01*
X144400192Y-91608220D01*
X143978997Y-91186290D01*
X143462791Y-90971942D01*
X147845365Y-90971942D01*
X147416741Y-91149484D01*
X147334800Y-91402195D01*
X148209000Y-92276395D01*
X149083200Y-91402195D01*
X149001259Y-91149484D01*
X148440970Y-90945752D01*
X147845365Y-90971942D01*
X143462791Y-90971942D01*
X143428398Y-90957661D01*
X142832218Y-90957141D01*
X142281220Y-91184808D01*
X141859290Y-91606003D01*
X141630661Y-92156602D01*
X141630141Y-92752782D01*
X141857808Y-93303780D01*
X142279003Y-93725710D01*
X142829602Y-93954339D01*
X143425782Y-93954859D01*
X143976780Y-93727192D01*
X144194546Y-93509805D01*
X147334800Y-93509805D01*
X144194546Y-93509805D01*
X144194546Y-93509805D01*
X147334800Y-93509805D01*
X147416741Y-93762516D01*
X147977030Y-93966248D01*
X140838860Y-93966248D01*
X140881608Y-93817213D01*
X140081000Y-93016605D01*
X139280392Y-93817213D01*
X138536457Y-93817213D01*
X138724629Y-93629370D01*
X138804395Y-93437273D01*
X138858603Y-93568143D01*
X139100787Y-93637608D01*
X139901395Y-92837000D01*
X140260605Y-92837000D01*
X141061213Y-93637608D01*
X141303397Y-93568143D01*
X141490144Y-93044698D01*
X141462362Y-92489632D01*
X141303397Y-92105857D01*
X141061213Y-92036392D01*
X140260605Y-92837000D01*
X139901395Y-92837000D01*
X139901395Y-92837000D01*
X139100787Y-92036392D01*
X138858603Y-92105857D01*
X138808491Y-92246318D01*
X138726010Y-92046697D01*
X138333370Y-91653371D01*
X137857176Y-91455638D01*
X139733632Y-91455638D01*
X139349857Y-91614603D01*
X139280392Y-91856787D01*
X140081000Y-92657395D01*
X140881608Y-91856787D01*
X140812143Y-91614603D01*
X140288698Y-91427856D01*
X139733632Y-91455638D01*
X137857176Y-91455638D01*
X137820100Y-91440243D01*
X137264339Y-91439758D01*
X136750697Y-91651990D01*
X136357371Y-92044630D01*
X136144243Y-92557900D01*
X136143758Y-93113661D01*
X136355990Y-93627303D01*
X136748630Y-94020629D01*
X137261900Y-94233757D01*
X137817661Y-94234242D01*
X138331303Y-94022010D01*
X138536457Y-93817213D01*
X139280392Y-93817213D01*
X138536457Y-93817213D01*
X138536457Y-93817213D01*
X139280392Y-93817213D01*
X139349857Y-94059397D01*
X139873302Y-94246144D01*
X131872302Y-94246144D01*
X131872302Y-94246144D01*
X132427368Y-94218362D01*
X132811143Y-94059397D01*
X132880608Y-93817213D01*
X132701003Y-93637608D01*
X133060213Y-93637608D01*
X133302397Y-93568143D01*
X133352509Y-93427682D01*
X133434990Y-93627303D01*
X133827630Y-94020629D01*
X134340900Y-94233757D01*
X134896661Y-94234242D01*
X135410303Y-94022010D01*
X135803629Y-93629370D01*
X136016757Y-93116100D01*
X136017242Y-92560339D01*
X135805010Y-92046697D01*
X135412370Y-91653371D01*
X134899100Y-91440243D01*
X134343339Y-91439758D01*
X133829697Y-91651990D01*
X132821867Y-91651990D01*
X132811143Y-91614603D01*
X132287698Y-91427856D01*
X131732632Y-91455638D01*
X131348857Y-91614603D01*
X131279392Y-91856787D01*
X132080000Y-92657395D01*
X132880608Y-91856787D01*
X132821867Y-91651990D01*
X133829697Y-91651990D01*
X132821867Y-91651990D01*
X132821867Y-91651990D01*
X133829697Y-91651990D01*
X133436371Y-92044630D01*
X133356605Y-92236727D01*
X133302397Y-92105857D01*
X133060213Y-92036392D01*
X132259605Y-92837000D01*
X131900395Y-92837000D01*
X131900395Y-92837000D01*
X131099787Y-92036392D01*
X130857603Y-92105857D01*
X130670856Y-92629302D01*
X130698638Y-93184368D01*
X130857603Y-93568143D01*
X131099787Y-93637608D01*
X131900395Y-92837000D01*
X132259605Y-92837000D01*
X131900395Y-92837000D01*
X131900395Y-92837000D01*
X132259605Y-92837000D01*
X133060213Y-93637608D01*
X132701003Y-93637608D01*
X132080000Y-93016605D01*
X131279392Y-93817213D01*
X130064455Y-93817213D01*
X130091670Y-93799029D01*
X130416526Y-93312848D01*
X130530600Y-92739359D01*
X130530600Y-92680641D01*
X130416526Y-92107152D01*
X130091670Y-91620971D01*
X129820828Y-91440000D01*
X130091670Y-91259029D01*
X130416526Y-90772848D01*
X130530600Y-90199359D01*
X130530600Y-90156248D01*
X139849030Y-90156248D01*
X140444635Y-90130058D01*
X140873259Y-89952516D01*
X140955200Y-89699805D01*
X140863424Y-89608029D01*
X142450330Y-89608029D01*
X142936511Y-89932885D01*
X143510000Y-90046959D01*
X144083489Y-89932885D01*
X144569670Y-89608029D01*
X144894526Y-89121848D01*
X145008600Y-88548359D01*
X145008600Y-88489641D01*
X144894526Y-87916152D01*
X144569670Y-87429971D01*
X144298828Y-87249000D01*
X144569670Y-87068029D01*
X144894526Y-86581848D01*
X145008600Y-86008359D01*
X145008600Y-85949641D01*
X144894526Y-85376152D01*
X144569670Y-84889971D01*
X144298828Y-84709000D01*
X144569670Y-84528029D01*
X144894526Y-84041848D01*
X145008600Y-83468359D01*
X145008600Y-83409641D01*
X144894526Y-82836152D01*
X144569670Y-82349971D01*
X144083489Y-82025115D01*
X143510000Y-81911041D01*
X142936511Y-82025115D01*
X142042725Y-82025115D01*
X143297032Y-80770808D01*
X146091220Y-80770808D01*
X145669290Y-81192003D01*
X145440661Y-81742602D01*
X145440141Y-82338782D01*
X145667808Y-82889780D01*
X146089003Y-83311710D01*
X146524744Y-83492646D01*
X146014345Y-83703538D01*
X145554154Y-84162927D01*
X145304794Y-84763453D01*
X145304226Y-85413694D01*
X145552538Y-86014655D01*
X146011927Y-86474846D01*
X146524616Y-86687733D01*
X146091220Y-86866808D01*
X145669290Y-87288003D01*
X145440661Y-87838602D01*
X145440141Y-88434782D01*
X145667808Y-88985780D01*
X146089003Y-89407710D01*
X146639602Y-89636339D01*
X147235782Y-89636859D01*
X147786780Y-89409192D01*
X148208710Y-88987997D01*
X148437339Y-88437398D01*
X148437859Y-87841218D01*
X148210192Y-87290220D01*
X147788997Y-86868290D01*
X147353256Y-86687354D01*
X147863655Y-86476462D01*
X148323846Y-86017073D01*
X148573206Y-85416547D01*
X148573774Y-84766306D01*
X148325462Y-84165345D01*
X147866073Y-83705154D01*
X147353384Y-83492267D01*
X147786780Y-83313192D01*
X148208710Y-82891997D01*
X148437339Y-82341398D01*
X148437859Y-81745218D01*
X148210192Y-81194220D01*
X147788997Y-80772290D01*
X147238398Y-80543661D01*
X146642218Y-80543141D01*
X146091220Y-80770808D01*
X143297032Y-80770808D01*
X144057841Y-80010000D01*
X145835735Y-80010000D01*
X146089003Y-80263710D01*
X146639602Y-80492339D01*
X147235782Y-80492859D01*
X147786780Y-80265192D01*
X148208710Y-79843997D01*
X148437339Y-79293398D01*
X148437859Y-78697218D01*
X148210192Y-78146220D01*
X147788997Y-77724290D01*
X147785428Y-77722808D01*
X156251220Y-77722808D01*
X155829290Y-78144003D01*
X155600661Y-78694602D01*
X155600141Y-79290782D01*
X155827808Y-79841780D01*
X156249003Y-80263710D01*
X156799602Y-80492339D01*
X157395782Y-80492859D01*
X157946780Y-80265192D01*
X158368710Y-79843997D01*
X158597339Y-79293398D01*
X158597859Y-78697218D01*
X158370192Y-78146220D01*
X157948997Y-77724290D01*
X157398398Y-77495661D01*
X156802218Y-77495141D01*
X156251220Y-77722808D01*
X147785428Y-77722808D01*
X147238398Y-77495661D01*
X146642218Y-77495141D01*
X146091220Y-77722808D01*
X145835583Y-77978000D01*
X143637000Y-77978000D01*
X143248194Y-78055338D01*
X143248192Y-78055339D01*
X143248193Y-78055339D01*
X142918579Y-78275580D01*
X138771160Y-82423000D01*
X134712466Y-82423000D01*
X134663670Y-82349971D01*
X134177489Y-82025115D01*
X133604000Y-81911041D01*
X133030511Y-82025115D01*
X132544330Y-82349971D01*
X132219474Y-82836152D01*
X132105400Y-83409641D01*
X132105400Y-83468359D01*
X132219474Y-84041848D01*
X132544330Y-84528029D01*
X132815172Y-84709000D01*
X132544330Y-84889971D01*
X132219474Y-85376152D01*
X132105400Y-85949641D01*
X132105400Y-86008359D01*
X132219474Y-86581848D01*
X132544330Y-87068029D01*
X132815172Y-87249000D01*
X132544330Y-87429971D01*
X132219474Y-87916152D01*
X132105400Y-88489641D01*
X132105400Y-88548359D01*
X132219474Y-89121848D01*
X132544330Y-89608029D01*
X133030511Y-89932885D01*
X133604000Y-90046959D01*
X134177489Y-89932885D01*
X134663670Y-89608029D01*
X134988526Y-89121848D01*
X135102600Y-88548359D01*
X135102600Y-88489641D01*
X134988526Y-87916152D01*
X134663670Y-87429971D01*
X134392828Y-87249000D01*
X134663670Y-87068029D01*
X134988526Y-86581848D01*
X135102600Y-86008359D01*
X135102600Y-85949641D01*
X134988526Y-85376152D01*
X134663670Y-84889971D01*
X134392828Y-84709000D01*
X134663670Y-84528029D01*
X134712466Y-84455000D01*
X139192000Y-84455000D01*
X139516300Y-84390493D01*
X139580807Y-84377662D01*
X139910420Y-84157420D01*
X142042725Y-82025115D01*
X142936511Y-82025115D01*
X142042725Y-82025115D01*
X142042725Y-82025115D01*
X142936511Y-82025115D01*
X142450330Y-82349971D01*
X142125474Y-82836152D01*
X142011400Y-83409641D01*
X142011400Y-83468359D01*
X142125474Y-84041848D01*
X142450330Y-84528029D01*
X142721172Y-84709000D01*
X142450330Y-84889971D01*
X142125474Y-85376152D01*
X142011400Y-85949641D01*
X142011400Y-86008359D01*
X142125474Y-86581848D01*
X142450330Y-87068029D01*
X142721172Y-87249000D01*
X140624417Y-87249000D01*
X140312970Y-87135752D01*
X139717365Y-87161942D01*
X139288741Y-87339484D01*
X139206800Y-87592195D01*
X140081000Y-88466395D01*
X140955200Y-87592195D01*
X140873259Y-87339484D01*
X140624417Y-87249000D01*
X142721172Y-87249000D01*
X140624417Y-87249000D01*
X140624417Y-87249000D01*
X142721172Y-87249000D01*
X142450330Y-87429971D01*
X142125474Y-87916152D01*
X141413368Y-87916152D01*
X141387516Y-87853741D01*
X141134805Y-87771800D01*
X140260605Y-88646000D01*
X141134805Y-89520200D01*
X141387516Y-89438259D01*
X141591248Y-88877970D01*
X141565058Y-88282365D01*
X141413368Y-87916152D01*
X142125474Y-87916152D01*
X141413368Y-87916152D01*
X141413368Y-87916152D01*
X142125474Y-87916152D01*
X142011400Y-88489641D01*
X142011400Y-88548359D01*
X142125474Y-89121848D01*
X142450330Y-89608029D01*
X140863424Y-89608029D01*
X140081000Y-88825605D01*
X139206800Y-89699805D01*
X138352546Y-89699805D01*
X138556710Y-89495997D01*
X138677704Y-89204612D01*
X138774484Y-89438259D01*
X139027195Y-89520200D01*
X139901395Y-88646000D01*
X139027195Y-87771800D01*
X138774484Y-87853741D01*
X138683978Y-88102645D01*
X138558192Y-87798220D01*
X138136997Y-87376290D01*
X137586398Y-87147661D01*
X136990218Y-87147141D01*
X136439220Y-87374808D01*
X136017290Y-87796003D01*
X135788661Y-88346602D01*
X135788141Y-88942782D01*
X136015808Y-89493780D01*
X136437003Y-89915710D01*
X136987602Y-90144339D01*
X137583782Y-90144859D01*
X138134780Y-89917192D01*
X138352546Y-89699805D01*
X139206800Y-89699805D01*
X138352546Y-89699805D01*
X138352546Y-89699805D01*
X139206800Y-89699805D01*
X139288741Y-89952516D01*
X139849030Y-90156248D01*
X130530600Y-90156248D01*
X130530600Y-90140641D01*
X130416526Y-89567152D01*
X130091670Y-89080971D01*
X129820828Y-88900000D01*
X130091670Y-88719029D01*
X130416526Y-88232848D01*
X130530600Y-87659359D01*
X130530600Y-87600641D01*
X130416526Y-87027152D01*
X130091670Y-86540971D01*
X129820828Y-86360000D01*
X130091670Y-86179029D01*
X130416526Y-85692848D01*
X130530600Y-85119359D01*
X130530600Y-85060641D01*
X130416526Y-84487152D01*
X130091670Y-84000971D01*
X129820828Y-83820000D01*
X130091670Y-83639029D01*
X130416526Y-83152848D01*
X130530600Y-82579359D01*
X130530600Y-82520641D01*
X130416526Y-81947152D01*
X130091670Y-81460971D01*
X129605489Y-81136115D01*
X129032000Y-81022041D01*
X128458511Y-81136115D01*
X127972330Y-81460971D01*
X127685000Y-81890990D01*
X127685000Y-77283466D01*
X127722594Y-77094469D01*
X127791437Y-76991437D01*
X127797866Y-76987141D01*
X136990218Y-76987141D01*
X136439220Y-77214808D01*
X136017290Y-77636003D01*
X135788661Y-78186602D01*
X135788141Y-78782782D01*
X136015808Y-79333780D01*
X136437003Y-79755710D01*
X136987602Y-79984339D01*
X137583782Y-79984859D01*
X138134780Y-79757192D01*
X138556710Y-79335997D01*
X138684031Y-79029375D01*
X138809808Y-79333780D01*
X139231003Y-79755710D01*
X139781602Y-79984339D01*
X140377782Y-79984859D01*
X140928780Y-79757192D01*
X141350710Y-79335997D01*
X141579339Y-78785398D01*
X141579859Y-78189218D01*
X141352192Y-77638220D01*
X140930997Y-77216290D01*
X140380398Y-76987661D01*
X139784218Y-76987141D01*
X139233220Y-77214808D01*
X138811290Y-77636003D01*
X138683969Y-77942625D01*
X138558192Y-77638220D01*
X138136997Y-77216290D01*
X137586398Y-76987661D01*
X136990218Y-76987141D01*
X127797866Y-76987141D01*
X127894469Y-76922594D01*
X128083466Y-76885000D01*
X158623000Y-76885000D01*
X158623000Y-84498212D01*
M02*
