G04 #@! TF.FileFunction,Legend,Bot*
%FSLAX46Y46*%
G04 Gerber Fmt 4.6, Leading zero omitted, Abs format (unit mm)*
G04 Created by KiCad (PCBNEW (2015-03-25 BZR 5536)-product) date 2015 July 22, Wednesday 20:31:06*
%MOMM*%
G01*
G04 APERTURE LIST*
%ADD10C,0.100000*%
%ADD11C,0.300000*%
%ADD12C,1.524000*%
%ADD13C,1.727200*%
%ADD14O,1.727200X1.727200*%
%ADD15O,1.524000X3.048000*%
%ADD16C,1.998980*%
G04 APERTURE END LIST*
D10*
D11*
X158741215Y-96960571D02*
X158741215Y-98174857D01*
X158812644Y-98317714D01*
X158884072Y-98389143D01*
X159026929Y-98460571D01*
X159241215Y-98460571D01*
X159384072Y-98389143D01*
X158741215Y-97889143D02*
X158884072Y-97960571D01*
X159169786Y-97960571D01*
X159312644Y-97889143D01*
X159384072Y-97817714D01*
X159455501Y-97674857D01*
X159455501Y-97246286D01*
X159384072Y-97103429D01*
X159312644Y-97032000D01*
X159169786Y-96960571D01*
X158884072Y-96960571D01*
X158741215Y-97032000D01*
X157812643Y-97960571D02*
X157955501Y-97889143D01*
X158026929Y-97817714D01*
X158098358Y-97674857D01*
X158098358Y-97246286D01*
X158026929Y-97103429D01*
X157955501Y-97032000D01*
X157812643Y-96960571D01*
X157598358Y-96960571D01*
X157455501Y-97032000D01*
X157384072Y-97103429D01*
X157312643Y-97246286D01*
X157312643Y-97674857D01*
X157384072Y-97817714D01*
X157455501Y-97889143D01*
X157598358Y-97960571D01*
X157812643Y-97960571D01*
X156455500Y-97960571D02*
X156598358Y-97889143D01*
X156669786Y-97817714D01*
X156741215Y-97674857D01*
X156741215Y-97246286D01*
X156669786Y-97103429D01*
X156598358Y-97032000D01*
X156455500Y-96960571D01*
X156241215Y-96960571D01*
X156098358Y-97032000D01*
X156026929Y-97103429D01*
X155955500Y-97246286D01*
X155955500Y-97674857D01*
X156026929Y-97817714D01*
X156098358Y-97889143D01*
X156241215Y-97960571D01*
X156455500Y-97960571D01*
X155312643Y-97817714D02*
X155241215Y-97889143D01*
X155312643Y-97960571D01*
X155384072Y-97889143D01*
X155312643Y-97817714D01*
X155312643Y-97960571D01*
X153955500Y-96960571D02*
X153955500Y-98174857D01*
X154026929Y-98317714D01*
X154098357Y-98389143D01*
X154241214Y-98460571D01*
X154455500Y-98460571D01*
X154598357Y-98389143D01*
X153955500Y-97889143D02*
X154098357Y-97960571D01*
X154384071Y-97960571D01*
X154526929Y-97889143D01*
X154598357Y-97817714D01*
X154669786Y-97674857D01*
X154669786Y-97246286D01*
X154598357Y-97103429D01*
X154526929Y-97032000D01*
X154384071Y-96960571D01*
X154098357Y-96960571D01*
X153955500Y-97032000D01*
X153026928Y-97960571D02*
X153169786Y-97889143D01*
X153241214Y-97746286D01*
X153241214Y-96460571D01*
X151384072Y-96389143D02*
X152669786Y-98317714D01*
X150669785Y-97960571D02*
X150812643Y-97889143D01*
X150884071Y-97817714D01*
X150955500Y-97674857D01*
X150955500Y-97246286D01*
X150884071Y-97103429D01*
X150812643Y-97032000D01*
X150669785Y-96960571D01*
X150455500Y-96960571D01*
X150312643Y-97032000D01*
X150241214Y-97103429D01*
X150169785Y-97246286D01*
X150169785Y-97674857D01*
X150241214Y-97817714D01*
X150312643Y-97889143D01*
X150455500Y-97960571D01*
X150669785Y-97960571D01*
X149526928Y-97960571D02*
X149526928Y-96460571D01*
X149384071Y-97389143D02*
X148955500Y-97960571D01*
X148955500Y-96960571D02*
X149526928Y-97532000D01*
X148455499Y-96960571D02*
X147669785Y-96960571D01*
X148455499Y-97960571D01*
X147669785Y-97960571D01*
X146098356Y-98103429D02*
X146241213Y-98032000D01*
X146384070Y-97889143D01*
X146598356Y-97674857D01*
X146741213Y-97603429D01*
X146884070Y-97603429D01*
X146812642Y-97960571D02*
X146955499Y-97889143D01*
X147098356Y-97746286D01*
X147169785Y-97460571D01*
X147169785Y-96960571D01*
X147098356Y-96674857D01*
X146955499Y-96532000D01*
X146812642Y-96460571D01*
X146526928Y-96460571D01*
X146384070Y-96532000D01*
X146241213Y-96674857D01*
X146169785Y-96960571D01*
X146169785Y-97460571D01*
X146241213Y-97746286D01*
X146384070Y-97889143D01*
X146526928Y-97960571D01*
X146812642Y-97960571D01*
X145741213Y-96960571D02*
X145169784Y-96960571D01*
X145526927Y-97960571D02*
X145526927Y-96674857D01*
X145455499Y-96532000D01*
X145312641Y-96460571D01*
X145169784Y-96460571D01*
X144884070Y-96960571D02*
X144312641Y-96960571D01*
X144669784Y-96460571D02*
X144669784Y-97746286D01*
X144598356Y-97889143D01*
X144455498Y-97960571D01*
X144312641Y-97960571D01*
D10*
X165100000Y-77216000D02*
X165100000Y-100584000D01*
X128016000Y-76200000D02*
X164084000Y-76200000D01*
X127000000Y-100584000D02*
X127000000Y-77216000D01*
X164084000Y-101600000D02*
X128016000Y-101600000D01*
X127000000Y-100584000D02*
G75*
G03X128016000Y-101600000I1016000J0D01*
G01*
X128016000Y-76200000D02*
G75*
G03X127000000Y-77216000I0J-1016000D01*
G01*
X165100000Y-77216000D02*
G75*
G03X164084000Y-76200000I-1016000J0D01*
G01*
X164084000Y-101600000D02*
G75*
G03X165100000Y-100584000I0J1016000D01*
G01*
D11*
X159569784Y-94761857D02*
X159069784Y-94761857D01*
X158855498Y-95547571D02*
X159569784Y-95547571D01*
X159569784Y-94047571D01*
X158855498Y-94047571D01*
X158284070Y-95476143D02*
X158069784Y-95547571D01*
X157712641Y-95547571D01*
X157569784Y-95476143D01*
X157498355Y-95404714D01*
X157426927Y-95261857D01*
X157426927Y-95119000D01*
X157498355Y-94976143D01*
X157569784Y-94904714D01*
X157712641Y-94833286D01*
X157998355Y-94761857D01*
X158141213Y-94690429D01*
X158212641Y-94619000D01*
X158284070Y-94476143D01*
X158284070Y-94333286D01*
X158212641Y-94190429D01*
X158141213Y-94119000D01*
X157998355Y-94047571D01*
X157641213Y-94047571D01*
X157426927Y-94119000D01*
X156784070Y-95547571D02*
X156784070Y-94047571D01*
X156212642Y-94047571D01*
X156069784Y-94119000D01*
X155998356Y-94190429D01*
X155926927Y-94333286D01*
X155926927Y-94547571D01*
X155998356Y-94690429D01*
X156069784Y-94761857D01*
X156212642Y-94833286D01*
X156784070Y-94833286D01*
X155069784Y-94690429D02*
X155212642Y-94619000D01*
X155284070Y-94547571D01*
X155355499Y-94404714D01*
X155355499Y-94333286D01*
X155284070Y-94190429D01*
X155212642Y-94119000D01*
X155069784Y-94047571D01*
X154784070Y-94047571D01*
X154641213Y-94119000D01*
X154569784Y-94190429D01*
X154498356Y-94333286D01*
X154498356Y-94404714D01*
X154569784Y-94547571D01*
X154641213Y-94619000D01*
X154784070Y-94690429D01*
X155069784Y-94690429D01*
X155212642Y-94761857D01*
X155284070Y-94833286D01*
X155355499Y-94976143D01*
X155355499Y-95261857D01*
X155284070Y-95404714D01*
X155212642Y-95476143D01*
X155069784Y-95547571D01*
X154784070Y-95547571D01*
X154641213Y-95476143D01*
X154569784Y-95404714D01*
X154498356Y-95261857D01*
X154498356Y-94976143D01*
X154569784Y-94833286D01*
X154641213Y-94761857D01*
X154784070Y-94690429D01*
X153926928Y-94190429D02*
X153855499Y-94119000D01*
X153712642Y-94047571D01*
X153355499Y-94047571D01*
X153212642Y-94119000D01*
X153141213Y-94190429D01*
X153069785Y-94333286D01*
X153069785Y-94476143D01*
X153141213Y-94690429D01*
X153998356Y-95547571D01*
X153069785Y-95547571D01*
X151784071Y-94047571D02*
X152069785Y-94047571D01*
X152212642Y-94119000D01*
X152284071Y-94190429D01*
X152426928Y-94404714D01*
X152498357Y-94690429D01*
X152498357Y-95261857D01*
X152426928Y-95404714D01*
X152355500Y-95476143D01*
X152212642Y-95547571D01*
X151926928Y-95547571D01*
X151784071Y-95476143D01*
X151712642Y-95404714D01*
X151641214Y-95261857D01*
X151641214Y-94904714D01*
X151712642Y-94761857D01*
X151784071Y-94690429D01*
X151926928Y-94619000D01*
X152212642Y-94619000D01*
X152355500Y-94690429D01*
X152426928Y-94761857D01*
X152498357Y-94904714D01*
X150355500Y-94047571D02*
X150641214Y-94047571D01*
X150784071Y-94119000D01*
X150855500Y-94190429D01*
X150998357Y-94404714D01*
X151069786Y-94690429D01*
X151069786Y-95261857D01*
X150998357Y-95404714D01*
X150926929Y-95476143D01*
X150784071Y-95547571D01*
X150498357Y-95547571D01*
X150355500Y-95476143D01*
X150284071Y-95404714D01*
X150212643Y-95261857D01*
X150212643Y-94904714D01*
X150284071Y-94761857D01*
X150355500Y-94690429D01*
X150498357Y-94619000D01*
X150784071Y-94619000D01*
X150926929Y-94690429D01*
X150998357Y-94761857D01*
X151069786Y-94904714D01*
X147926929Y-94761857D02*
X147712643Y-94833286D01*
X147641215Y-94904714D01*
X147569786Y-95047571D01*
X147569786Y-95261857D01*
X147641215Y-95404714D01*
X147712643Y-95476143D01*
X147855501Y-95547571D01*
X148426929Y-95547571D01*
X148426929Y-94047571D01*
X147926929Y-94047571D01*
X147784072Y-94119000D01*
X147712643Y-94190429D01*
X147641215Y-94333286D01*
X147641215Y-94476143D01*
X147712643Y-94619000D01*
X147784072Y-94690429D01*
X147926929Y-94761857D01*
X148426929Y-94761857D01*
X146926929Y-95547571D02*
X146926929Y-94547571D01*
X146926929Y-94833286D02*
X146855501Y-94690429D01*
X146784072Y-94619000D01*
X146641215Y-94547571D01*
X146498358Y-94547571D01*
X145426930Y-95476143D02*
X145569787Y-95547571D01*
X145855501Y-95547571D01*
X145998358Y-95476143D01*
X146069787Y-95333286D01*
X146069787Y-94761857D01*
X145998358Y-94619000D01*
X145855501Y-94547571D01*
X145569787Y-94547571D01*
X145426930Y-94619000D01*
X145355501Y-94761857D01*
X145355501Y-94904714D01*
X146069787Y-95047571D01*
X144069787Y-95547571D02*
X144069787Y-94761857D01*
X144141216Y-94619000D01*
X144284073Y-94547571D01*
X144569787Y-94547571D01*
X144712644Y-94619000D01*
X144069787Y-95476143D02*
X144212644Y-95547571D01*
X144569787Y-95547571D01*
X144712644Y-95476143D01*
X144784073Y-95333286D01*
X144784073Y-95190429D01*
X144712644Y-95047571D01*
X144569787Y-94976143D01*
X144212644Y-94976143D01*
X144069787Y-94904714D01*
X143355501Y-95547571D02*
X143355501Y-94047571D01*
X143212644Y-94976143D02*
X142784073Y-95547571D01*
X142784073Y-94547571D02*
X143355501Y-95119000D01*
X141926929Y-95547571D02*
X142069787Y-95476143D01*
X142141215Y-95404714D01*
X142212644Y-95261857D01*
X142212644Y-94833286D01*
X142141215Y-94690429D01*
X142069787Y-94619000D01*
X141926929Y-94547571D01*
X141712644Y-94547571D01*
X141569787Y-94619000D01*
X141498358Y-94690429D01*
X141426929Y-94833286D01*
X141426929Y-95261857D01*
X141498358Y-95404714D01*
X141569787Y-95476143D01*
X141712644Y-95547571D01*
X141926929Y-95547571D01*
X140141215Y-94547571D02*
X140141215Y-95547571D01*
X140784072Y-94547571D02*
X140784072Y-95333286D01*
X140712644Y-95476143D01*
X140569786Y-95547571D01*
X140355501Y-95547571D01*
X140212644Y-95476143D01*
X140141215Y-95404714D01*
X139641215Y-94547571D02*
X139069786Y-94547571D01*
X139426929Y-94047571D02*
X139426929Y-95333286D01*
X139355501Y-95476143D01*
X139212643Y-95547571D01*
X139069786Y-95547571D01*
X136926929Y-94761857D02*
X136712643Y-94833286D01*
X136641215Y-94904714D01*
X136569786Y-95047571D01*
X136569786Y-95261857D01*
X136641215Y-95404714D01*
X136712643Y-95476143D01*
X136855501Y-95547571D01*
X137426929Y-95547571D01*
X137426929Y-94047571D01*
X136926929Y-94047571D01*
X136784072Y-94119000D01*
X136712643Y-94190429D01*
X136641215Y-94333286D01*
X136641215Y-94476143D01*
X136712643Y-94619000D01*
X136784072Y-94690429D01*
X136926929Y-94761857D01*
X137426929Y-94761857D01*
X135712643Y-95547571D02*
X135855501Y-95476143D01*
X135926929Y-95404714D01*
X135998358Y-95261857D01*
X135998358Y-94833286D01*
X135926929Y-94690429D01*
X135855501Y-94619000D01*
X135712643Y-94547571D01*
X135498358Y-94547571D01*
X135355501Y-94619000D01*
X135284072Y-94690429D01*
X135212643Y-94833286D01*
X135212643Y-95261857D01*
X135284072Y-95404714D01*
X135355501Y-95476143D01*
X135498358Y-95547571D01*
X135712643Y-95547571D01*
X133926929Y-95547571D02*
X133926929Y-94761857D01*
X133998358Y-94619000D01*
X134141215Y-94547571D01*
X134426929Y-94547571D01*
X134569786Y-94619000D01*
X133926929Y-95476143D02*
X134069786Y-95547571D01*
X134426929Y-95547571D01*
X134569786Y-95476143D01*
X134641215Y-95333286D01*
X134641215Y-95190429D01*
X134569786Y-95047571D01*
X134426929Y-94976143D01*
X134069786Y-94976143D01*
X133926929Y-94904714D01*
X133212643Y-95547571D02*
X133212643Y-94547571D01*
X133212643Y-94833286D02*
X133141215Y-94690429D01*
X133069786Y-94619000D01*
X132926929Y-94547571D01*
X132784072Y-94547571D01*
X131641215Y-95547571D02*
X131641215Y-94047571D01*
X131641215Y-95476143D02*
X131784072Y-95547571D01*
X132069786Y-95547571D01*
X132212644Y-95476143D01*
X132284072Y-95404714D01*
X132355501Y-95261857D01*
X132355501Y-94833286D01*
X132284072Y-94690429D01*
X132212644Y-94619000D01*
X132069786Y-94547571D01*
X131784072Y-94547571D01*
X131641215Y-94619000D01*
D10*
G36*
X155254909Y-89122250D02*
X155462580Y-89306996D01*
X155603024Y-89432248D01*
X155804019Y-89611886D01*
X156031560Y-89815510D01*
X156137326Y-89910246D01*
X156341038Y-90091642D01*
X156510400Y-90240347D01*
X156622473Y-90336333D01*
X156652998Y-90360500D01*
X156678641Y-90434266D01*
X156704964Y-90603478D01*
X156727512Y-90836681D01*
X156733954Y-90932000D01*
X156786479Y-91367204D01*
X156898160Y-91730748D01*
X157087800Y-92071388D01*
X157263866Y-92306196D01*
X157439594Y-92491930D01*
X157653075Y-92673497D01*
X157872114Y-92827885D01*
X158064519Y-92932081D01*
X158184096Y-92964000D01*
X158289801Y-92994959D01*
X158316084Y-93027016D01*
X158385924Y-93062500D01*
X158546243Y-93093195D01*
X158760541Y-93116513D01*
X158992315Y-93129869D01*
X159205064Y-93130673D01*
X159362286Y-93116338D01*
X159405266Y-93104228D01*
X159452045Y-93068042D01*
X159437918Y-93009943D01*
X159350397Y-92911274D01*
X159176990Y-92753376D01*
X159161033Y-92739378D01*
X158929910Y-92534824D01*
X158687082Y-92316650D01*
X158509360Y-92154375D01*
X158349198Y-92013337D01*
X158223757Y-91915669D01*
X158166219Y-91884500D01*
X158109418Y-91842540D01*
X158133023Y-91729568D01*
X158228212Y-91564948D01*
X158386164Y-91368041D01*
X158416625Y-91334882D01*
X158686837Y-91043510D01*
X158951254Y-90754041D01*
X159194646Y-90483589D01*
X159401781Y-90249267D01*
X159557427Y-90068190D01*
X159646354Y-89957472D01*
X159658031Y-89940045D01*
X159727244Y-89864659D01*
X159817122Y-89877656D01*
X159956158Y-89984113D01*
X159968664Y-89995375D01*
X160088477Y-90103053D01*
X160270436Y-90265593D01*
X160481641Y-90453624D01*
X160555513Y-90519250D01*
X160762046Y-90704172D01*
X160943345Y-90869288D01*
X161069983Y-90987697D01*
X161097787Y-91014986D01*
X161183496Y-91090298D01*
X161224725Y-91062386D01*
X161248784Y-90978861D01*
X161259510Y-90839984D01*
X161247691Y-90639788D01*
X161219229Y-90416450D01*
X161180025Y-90208150D01*
X161135981Y-90053065D01*
X161095924Y-89990083D01*
X161037930Y-89917455D01*
X161036000Y-89899268D01*
X160989512Y-89764050D01*
X160865714Y-89578753D01*
X160688109Y-89370540D01*
X160480197Y-89166575D01*
X160265480Y-88994019D01*
X160234226Y-88972583D01*
X159828027Y-88749053D01*
X159412732Y-88625996D01*
X158951570Y-88594610D01*
X158713375Y-88608581D01*
X158437233Y-88624841D01*
X158262637Y-88611927D01*
X158167667Y-88568676D01*
X158086372Y-88494895D01*
X157933414Y-88357619D01*
X157732074Y-88177700D01*
X157544987Y-88011000D01*
X157301965Y-87794227D01*
X157069309Y-87585813D01*
X156878208Y-87413745D01*
X156784532Y-87328688D01*
X156648280Y-87207630D01*
X156574802Y-87165350D01*
X156533177Y-87194892D01*
X156502181Y-87265188D01*
X156212607Y-87870603D01*
X155837358Y-88440704D01*
X155462580Y-88892273D01*
X155254909Y-89122250D01*
X155254909Y-89122250D01*
X155254909Y-89122250D01*
G37*
X155254909Y-89122250D02*
X155462580Y-89306996D01*
X155603024Y-89432248D01*
X155804019Y-89611886D01*
X156031560Y-89815510D01*
X156137326Y-89910246D01*
X156341038Y-90091642D01*
X156510400Y-90240347D01*
X156622473Y-90336333D01*
X156652998Y-90360500D01*
X156678641Y-90434266D01*
X156704964Y-90603478D01*
X156727512Y-90836681D01*
X156733954Y-90932000D01*
X156786479Y-91367204D01*
X156898160Y-91730748D01*
X157087800Y-92071388D01*
X157263866Y-92306196D01*
X157439594Y-92491930D01*
X157653075Y-92673497D01*
X157872114Y-92827885D01*
X158064519Y-92932081D01*
X158184096Y-92964000D01*
X158289801Y-92994959D01*
X158316084Y-93027016D01*
X158385924Y-93062500D01*
X158546243Y-93093195D01*
X158760541Y-93116513D01*
X158992315Y-93129869D01*
X159205064Y-93130673D01*
X159362286Y-93116338D01*
X159405266Y-93104228D01*
X159452045Y-93068042D01*
X159437918Y-93009943D01*
X159350397Y-92911274D01*
X159176990Y-92753376D01*
X159161033Y-92739378D01*
X158929910Y-92534824D01*
X158687082Y-92316650D01*
X158509360Y-92154375D01*
X158349198Y-92013337D01*
X158223757Y-91915669D01*
X158166219Y-91884500D01*
X158109418Y-91842540D01*
X158133023Y-91729568D01*
X158228212Y-91564948D01*
X158386164Y-91368041D01*
X158416625Y-91334882D01*
X158686837Y-91043510D01*
X158951254Y-90754041D01*
X159194646Y-90483589D01*
X159401781Y-90249267D01*
X159557427Y-90068190D01*
X159646354Y-89957472D01*
X159658031Y-89940045D01*
X159727244Y-89864659D01*
X159817122Y-89877656D01*
X159956158Y-89984113D01*
X159968664Y-89995375D01*
X160088477Y-90103053D01*
X160270436Y-90265593D01*
X160481641Y-90453624D01*
X160555513Y-90519250D01*
X160762046Y-90704172D01*
X160943345Y-90869288D01*
X161069983Y-90987697D01*
X161097787Y-91014986D01*
X161183496Y-91090298D01*
X161224725Y-91062386D01*
X161248784Y-90978861D01*
X161259510Y-90839984D01*
X161247691Y-90639788D01*
X161219229Y-90416450D01*
X161180025Y-90208150D01*
X161135981Y-90053065D01*
X161095924Y-89990083D01*
X161037930Y-89917455D01*
X161036000Y-89899268D01*
X160989512Y-89764050D01*
X160865714Y-89578753D01*
X160688109Y-89370540D01*
X160480197Y-89166575D01*
X160265480Y-88994019D01*
X160234226Y-88972583D01*
X159828027Y-88749053D01*
X159412732Y-88625996D01*
X158951570Y-88594610D01*
X158713375Y-88608581D01*
X158437233Y-88624841D01*
X158262637Y-88611927D01*
X158167667Y-88568676D01*
X158086372Y-88494895D01*
X157933414Y-88357619D01*
X157732074Y-88177700D01*
X157544987Y-88011000D01*
X157301965Y-87794227D01*
X157069309Y-87585813D01*
X156878208Y-87413745D01*
X156784532Y-87328688D01*
X156648280Y-87207630D01*
X156574802Y-87165350D01*
X156533177Y-87194892D01*
X156502181Y-87265188D01*
X156212607Y-87870603D01*
X155837358Y-88440704D01*
X155462580Y-88892273D01*
X155254909Y-89122250D01*
X155254909Y-89122250D01*
G36*
X143014994Y-90707930D02*
X143033750Y-91117132D01*
X143324260Y-90849941D01*
X143670091Y-90533195D01*
X143962486Y-90268074D01*
X144191420Y-90063543D01*
X144346864Y-89928568D01*
X144416335Y-89873536D01*
X144489416Y-89894635D01*
X144607008Y-89989553D01*
X144666582Y-90051373D01*
X144794451Y-90193622D01*
X144977058Y-90396469D01*
X145184066Y-90626220D01*
X145288000Y-90741500D01*
X145496791Y-90973123D01*
X145697423Y-91195864D01*
X145859101Y-91375526D01*
X145915493Y-91438276D01*
X146036614Y-91601262D01*
X146105648Y-91749927D01*
X146112538Y-91854334D01*
X146065875Y-91885899D01*
X145998223Y-91926466D01*
X145866747Y-92031446D01*
X145700750Y-92177357D01*
X145472806Y-92383348D01*
X145215410Y-92612680D01*
X145044563Y-92762963D01*
X144871584Y-92917018D01*
X144784239Y-93009405D01*
X144771096Y-93060358D01*
X144820727Y-93090109D01*
X144854063Y-93100175D01*
X145048606Y-93130363D01*
X145300359Y-93139711D01*
X145541081Y-93127180D01*
X145637250Y-93112110D01*
X145806700Y-93062634D01*
X145891250Y-93030635D01*
X146039799Y-92970500D01*
X146223160Y-92899597D01*
X146228952Y-92897412D01*
X146415748Y-92793059D01*
X146638675Y-92619505D01*
X146866936Y-92406855D01*
X147069730Y-92185215D01*
X147216258Y-91984689D01*
X147265229Y-91884500D01*
X147331742Y-91726399D01*
X147397018Y-91626578D01*
X147405869Y-91619356D01*
X147437077Y-91540861D01*
X147466715Y-91365981D01*
X147490313Y-91125297D01*
X147498710Y-90984356D01*
X147516211Y-90722818D01*
X147540117Y-90512421D01*
X147566529Y-90383181D01*
X147580102Y-90357921D01*
X147653957Y-90299079D01*
X147800374Y-90174110D01*
X147997694Y-90002046D01*
X148224257Y-89801915D01*
X148458406Y-89592749D01*
X148678482Y-89393576D01*
X148699475Y-89374398D01*
X148979261Y-89118547D01*
X148781423Y-88898148D01*
X148598324Y-88684381D01*
X148413844Y-88452598D01*
X148246115Y-88227653D01*
X148113265Y-88034398D01*
X148033427Y-87897685D01*
X148018500Y-87852384D01*
X147974149Y-87745519D01*
X147933528Y-87702029D01*
X147862296Y-87599089D01*
X147789402Y-87429431D01*
X147771585Y-87374606D01*
X147694616Y-87117704D01*
X147491433Y-87303586D01*
X147361196Y-87420700D01*
X147163607Y-87595951D01*
X146927160Y-87804153D01*
X146716750Y-87988358D01*
X146488819Y-88190152D01*
X146294991Y-88367029D01*
X146156273Y-88499463D01*
X146094402Y-88566747D01*
X146028568Y-88606195D01*
X145884401Y-88621668D01*
X145642368Y-88614463D01*
X145512593Y-88605432D01*
X145069776Y-88593822D01*
X144701077Y-88641954D01*
X144363556Y-88760308D01*
X144014276Y-88959367D01*
X143986090Y-88978054D01*
X143712407Y-89183882D01*
X143496060Y-89408105D01*
X143306539Y-89687600D01*
X143143719Y-89996239D01*
X143053801Y-90219217D01*
X143015052Y-90441240D01*
X143014994Y-90707930D01*
X143014994Y-90707930D01*
X143014994Y-90707930D01*
G37*
X143014994Y-90707930D02*
X143033750Y-91117132D01*
X143324260Y-90849941D01*
X143670091Y-90533195D01*
X143962486Y-90268074D01*
X144191420Y-90063543D01*
X144346864Y-89928568D01*
X144416335Y-89873536D01*
X144489416Y-89894635D01*
X144607008Y-89989553D01*
X144666582Y-90051373D01*
X144794451Y-90193622D01*
X144977058Y-90396469D01*
X145184066Y-90626220D01*
X145288000Y-90741500D01*
X145496791Y-90973123D01*
X145697423Y-91195864D01*
X145859101Y-91375526D01*
X145915493Y-91438276D01*
X146036614Y-91601262D01*
X146105648Y-91749927D01*
X146112538Y-91854334D01*
X146065875Y-91885899D01*
X145998223Y-91926466D01*
X145866747Y-92031446D01*
X145700750Y-92177357D01*
X145472806Y-92383348D01*
X145215410Y-92612680D01*
X145044563Y-92762963D01*
X144871584Y-92917018D01*
X144784239Y-93009405D01*
X144771096Y-93060358D01*
X144820727Y-93090109D01*
X144854063Y-93100175D01*
X145048606Y-93130363D01*
X145300359Y-93139711D01*
X145541081Y-93127180D01*
X145637250Y-93112110D01*
X145806700Y-93062634D01*
X145891250Y-93030635D01*
X146039799Y-92970500D01*
X146223160Y-92899597D01*
X146228952Y-92897412D01*
X146415748Y-92793059D01*
X146638675Y-92619505D01*
X146866936Y-92406855D01*
X147069730Y-92185215D01*
X147216258Y-91984689D01*
X147265229Y-91884500D01*
X147331742Y-91726399D01*
X147397018Y-91626578D01*
X147405869Y-91619356D01*
X147437077Y-91540861D01*
X147466715Y-91365981D01*
X147490313Y-91125297D01*
X147498710Y-90984356D01*
X147516211Y-90722818D01*
X147540117Y-90512421D01*
X147566529Y-90383181D01*
X147580102Y-90357921D01*
X147653957Y-90299079D01*
X147800374Y-90174110D01*
X147997694Y-90002046D01*
X148224257Y-89801915D01*
X148458406Y-89592749D01*
X148678482Y-89393576D01*
X148699475Y-89374398D01*
X148979261Y-89118547D01*
X148781423Y-88898148D01*
X148598324Y-88684381D01*
X148413844Y-88452598D01*
X148246115Y-88227653D01*
X148113265Y-88034398D01*
X148033427Y-87897685D01*
X148018500Y-87852384D01*
X147974149Y-87745519D01*
X147933528Y-87702029D01*
X147862296Y-87599089D01*
X147789402Y-87429431D01*
X147771585Y-87374606D01*
X147694616Y-87117704D01*
X147491433Y-87303586D01*
X147361196Y-87420700D01*
X147163607Y-87595951D01*
X146927160Y-87804153D01*
X146716750Y-87988358D01*
X146488819Y-88190152D01*
X146294991Y-88367029D01*
X146156273Y-88499463D01*
X146094402Y-88566747D01*
X146028568Y-88606195D01*
X145884401Y-88621668D01*
X145642368Y-88614463D01*
X145512593Y-88605432D01*
X145069776Y-88593822D01*
X144701077Y-88641954D01*
X144363556Y-88760308D01*
X144014276Y-88959367D01*
X143986090Y-88978054D01*
X143712407Y-89183882D01*
X143496060Y-89408105D01*
X143306539Y-89687600D01*
X143143719Y-89996239D01*
X143053801Y-90219217D01*
X143015052Y-90441240D01*
X143014994Y-90707930D01*
X143014994Y-90707930D01*
G36*
X147857595Y-85054923D02*
X147860360Y-85405151D01*
X147868945Y-85730298D01*
X147883358Y-86005039D01*
X147903606Y-86204049D01*
X147929693Y-86302004D01*
X147930190Y-86302653D01*
X147991331Y-86426096D01*
X148039772Y-86598303D01*
X148039940Y-86599188D01*
X148150899Y-86966974D01*
X148344750Y-87381069D01*
X148603133Y-87811120D01*
X148844000Y-88139856D01*
X148844000Y-85225179D01*
X148896402Y-84880395D01*
X149039725Y-84541844D01*
X149253141Y-84236221D01*
X149515825Y-83990217D01*
X149806952Y-83830525D01*
X149963486Y-83790334D01*
X150390449Y-83776236D01*
X150760980Y-83872922D01*
X151041629Y-84046286D01*
X151292377Y-84305970D01*
X151418102Y-84577463D01*
X151422044Y-84856536D01*
X151383168Y-84997788D01*
X151313719Y-85119993D01*
X151197298Y-85235456D01*
X151017506Y-85356481D01*
X150757945Y-85495373D01*
X150402216Y-85664435D01*
X150256947Y-85730749D01*
X150061048Y-85829216D01*
X149952633Y-85919189D01*
X149899062Y-86033385D01*
X149883482Y-86105082D01*
X149849537Y-86266934D01*
X149819274Y-86369558D01*
X149816163Y-86375875D01*
X149722340Y-86427573D01*
X149569847Y-86399001D01*
X149389336Y-86300165D01*
X149263763Y-86195542D01*
X149118042Y-86024935D01*
X149015439Y-85851509D01*
X148991820Y-85781471D01*
X148948196Y-85637408D01*
X148899299Y-85561181D01*
X148866718Y-85482706D01*
X148846851Y-85322384D01*
X148844000Y-85225179D01*
X148844000Y-88139856D01*
X148907686Y-88226776D01*
X149240048Y-88597684D01*
X149262068Y-88619414D01*
X149656596Y-89005579D01*
X149628805Y-89413164D01*
X149624602Y-89685850D01*
X149669997Y-89876621D01*
X149785005Y-90027068D01*
X149989638Y-90178785D01*
X150000641Y-90185901D01*
X150242609Y-90284646D01*
X150497716Y-90267300D01*
X150678097Y-90195925D01*
X150917325Y-90017761D01*
X151048838Y-89772959D01*
X151078396Y-89575443D01*
X151096459Y-89420254D01*
X151151022Y-89355463D01*
X151235539Y-89344500D01*
X151334045Y-89361831D01*
X151376709Y-89437777D01*
X151386113Y-89582625D01*
X151431707Y-89823837D01*
X151574492Y-90027474D01*
X151638033Y-90076784D01*
X151638033Y-87487125D01*
X151658897Y-87229427D01*
X151713968Y-86943297D01*
X151792015Y-86669426D01*
X151881810Y-86448506D01*
X151955679Y-86336074D01*
X152051799Y-86308211D01*
X152172451Y-86321245D01*
X152286468Y-86377825D01*
X152362226Y-86500191D01*
X152407160Y-86647875D01*
X152461302Y-86825598D01*
X152515142Y-86945115D01*
X152534811Y-86968076D01*
X152562576Y-87044313D01*
X152582530Y-87211806D01*
X152590491Y-87434862D01*
X152590500Y-87443247D01*
X152586782Y-87676187D01*
X152570639Y-87809264D01*
X152534590Y-87869518D01*
X152471151Y-87883990D01*
X152468546Y-87884000D01*
X152359726Y-87830462D01*
X152305714Y-87697887D01*
X152248577Y-87539203D01*
X152179543Y-87440987D01*
X152114637Y-87420353D01*
X152049509Y-87488619D01*
X151980904Y-87627099D01*
X151872980Y-87810237D01*
X151763754Y-87883311D01*
X151752780Y-87884000D01*
X151689211Y-87866792D01*
X151654299Y-87796693D01*
X151640032Y-87645986D01*
X151638033Y-87487125D01*
X151638033Y-90076784D01*
X151778641Y-90185901D01*
X152029251Y-90280990D01*
X152285678Y-90268758D01*
X152521233Y-90164651D01*
X152709227Y-89984117D01*
X152803812Y-89783285D01*
X152803812Y-84564823D01*
X152839832Y-84463723D01*
X153073558Y-84153862D01*
X153384314Y-83927950D01*
X153745087Y-83797710D01*
X154128862Y-83774860D01*
X154340778Y-83812535D01*
X154600120Y-83925752D01*
X154856877Y-84109371D01*
X155071097Y-84329129D01*
X155202829Y-84550763D01*
X155203396Y-84552320D01*
X155267633Y-84695840D01*
X155324848Y-84769795D01*
X155333757Y-84772500D01*
X155363006Y-84829055D01*
X155379407Y-84972368D01*
X155383548Y-85162910D01*
X155376016Y-85361152D01*
X155357401Y-85527564D01*
X155328290Y-85622617D01*
X155321000Y-85629750D01*
X155268723Y-85718803D01*
X155257500Y-85799718D01*
X155214552Y-85915566D01*
X155104188Y-86073383D01*
X155006467Y-86181474D01*
X154831232Y-86337032D01*
X154692010Y-86406406D01*
X154578594Y-86412129D01*
X154456741Y-86378344D01*
X154393301Y-86287952D01*
X154363259Y-86152923D01*
X154332272Y-85993175D01*
X154304035Y-85898473D01*
X154299008Y-85890870D01*
X154214342Y-85840772D01*
X154055202Y-85763552D01*
X153861952Y-85676916D01*
X153674955Y-85598569D01*
X153534575Y-85546217D01*
X153486568Y-85534500D01*
X153432948Y-85527556D01*
X153369020Y-85494621D01*
X153268731Y-85417537D01*
X153106025Y-85278144D01*
X153055890Y-85234361D01*
X152894279Y-85032267D01*
X152806222Y-84794711D01*
X152803812Y-84564823D01*
X152803812Y-89783285D01*
X152822972Y-89742603D01*
X152844500Y-89568984D01*
X152859238Y-89413597D01*
X152914836Y-89350997D01*
X152964434Y-89344500D01*
X153057979Y-89385055D01*
X153116446Y-89522348D01*
X153127803Y-89576033D01*
X153235263Y-89892323D01*
X153425083Y-90116509D01*
X153559079Y-90200253D01*
X153848691Y-90284284D01*
X154127170Y-90249956D01*
X154223741Y-90206482D01*
X154448502Y-90033715D01*
X154575495Y-89807672D01*
X154615417Y-89506278D01*
X154612384Y-89404235D01*
X154590750Y-89022393D01*
X155003500Y-88595282D01*
X155324614Y-88248115D01*
X155564901Y-87950253D01*
X155744517Y-87673983D01*
X155883614Y-87391591D01*
X155890209Y-87376000D01*
X155975598Y-87192619D01*
X156045859Y-87058500D01*
X156116572Y-86888659D01*
X156174379Y-86678244D01*
X156180704Y-86645750D01*
X156223664Y-86465719D01*
X156272956Y-86336437D01*
X156284430Y-86318550D01*
X156329594Y-86196154D01*
X156364450Y-85973917D01*
X156388937Y-85678407D01*
X156402996Y-85336187D01*
X156406565Y-84973825D01*
X156399585Y-84617884D01*
X156381996Y-84294932D01*
X156353736Y-84031532D01*
X156314746Y-83854251D01*
X156290135Y-83804823D01*
X156237916Y-83692763D01*
X156189846Y-83517888D01*
X156182037Y-83478011D01*
X156118814Y-83248691D01*
X156024497Y-83020883D01*
X156015007Y-83002701D01*
X155937795Y-82848344D01*
X155895334Y-82743443D01*
X155892500Y-82728385D01*
X155860172Y-82652177D01*
X155778536Y-82512864D01*
X155732586Y-82441694D01*
X155615505Y-82263425D01*
X155516611Y-82109762D01*
X155494461Y-82074455D01*
X155360817Y-81898263D01*
X155163328Y-81686914D01*
X154923856Y-81458770D01*
X154664261Y-81232191D01*
X154406405Y-81025540D01*
X154172149Y-80857176D01*
X153983352Y-80745462D01*
X153868137Y-80708500D01*
X153800406Y-80668772D01*
X153797000Y-80651333D01*
X153740701Y-80606443D01*
X153595846Y-80551728D01*
X153463625Y-80516017D01*
X153257992Y-80458840D01*
X153096450Y-80398017D01*
X153041116Y-80366809D01*
X152939415Y-80336346D01*
X152741250Y-80314177D01*
X152476769Y-80300287D01*
X152176117Y-80294660D01*
X151869440Y-80297279D01*
X151586884Y-80308129D01*
X151358594Y-80327194D01*
X151214718Y-80354458D01*
X151187385Y-80367792D01*
X151065214Y-80430656D01*
X150891772Y-80483992D01*
X150883296Y-80485847D01*
X150637917Y-80567359D01*
X150315102Y-80719750D01*
X149935410Y-80933118D01*
X149860000Y-80978836D01*
X149724990Y-81080532D01*
X149532067Y-81249132D01*
X149309073Y-81457861D01*
X149083847Y-81679944D01*
X148884230Y-81888606D01*
X148738062Y-82057073D01*
X148735584Y-82060218D01*
X148629147Y-82220991D01*
X148497355Y-82455724D01*
X148357141Y-82729647D01*
X148225435Y-83007991D01*
X148119168Y-83255987D01*
X148055271Y-83438864D01*
X148047257Y-83473782D01*
X148000729Y-83658139D01*
X147943112Y-83795929D01*
X147930846Y-83813944D01*
X147904608Y-83909702D01*
X147884157Y-84107004D01*
X147869500Y-84380525D01*
X147860644Y-84704940D01*
X147857595Y-85054923D01*
X147857595Y-85054923D01*
X147857595Y-85054923D01*
G37*
X147857595Y-85054923D02*
X147860360Y-85405151D01*
X147868945Y-85730298D01*
X147883358Y-86005039D01*
X147903606Y-86204049D01*
X147929693Y-86302004D01*
X147930190Y-86302653D01*
X147991331Y-86426096D01*
X148039772Y-86598303D01*
X148039940Y-86599188D01*
X148150899Y-86966974D01*
X148344750Y-87381069D01*
X148603133Y-87811120D01*
X148844000Y-88139856D01*
X148844000Y-85225179D01*
X148896402Y-84880395D01*
X149039725Y-84541844D01*
X149253141Y-84236221D01*
X149515825Y-83990217D01*
X149806952Y-83830525D01*
X149963486Y-83790334D01*
X150390449Y-83776236D01*
X150760980Y-83872922D01*
X151041629Y-84046286D01*
X151292377Y-84305970D01*
X151418102Y-84577463D01*
X151422044Y-84856536D01*
X151383168Y-84997788D01*
X151313719Y-85119993D01*
X151197298Y-85235456D01*
X151017506Y-85356481D01*
X150757945Y-85495373D01*
X150402216Y-85664435D01*
X150256947Y-85730749D01*
X150061048Y-85829216D01*
X149952633Y-85919189D01*
X149899062Y-86033385D01*
X149883482Y-86105082D01*
X149849537Y-86266934D01*
X149819274Y-86369558D01*
X149816163Y-86375875D01*
X149722340Y-86427573D01*
X149569847Y-86399001D01*
X149389336Y-86300165D01*
X149263763Y-86195542D01*
X149118042Y-86024935D01*
X149015439Y-85851509D01*
X148991820Y-85781471D01*
X148948196Y-85637408D01*
X148899299Y-85561181D01*
X148866718Y-85482706D01*
X148846851Y-85322384D01*
X148844000Y-85225179D01*
X148844000Y-88139856D01*
X148907686Y-88226776D01*
X149240048Y-88597684D01*
X149262068Y-88619414D01*
X149656596Y-89005579D01*
X149628805Y-89413164D01*
X149624602Y-89685850D01*
X149669997Y-89876621D01*
X149785005Y-90027068D01*
X149989638Y-90178785D01*
X150000641Y-90185901D01*
X150242609Y-90284646D01*
X150497716Y-90267300D01*
X150678097Y-90195925D01*
X150917325Y-90017761D01*
X151048838Y-89772959D01*
X151078396Y-89575443D01*
X151096459Y-89420254D01*
X151151022Y-89355463D01*
X151235539Y-89344500D01*
X151334045Y-89361831D01*
X151376709Y-89437777D01*
X151386113Y-89582625D01*
X151431707Y-89823837D01*
X151574492Y-90027474D01*
X151638033Y-90076784D01*
X151638033Y-87487125D01*
X151658897Y-87229427D01*
X151713968Y-86943297D01*
X151792015Y-86669426D01*
X151881810Y-86448506D01*
X151955679Y-86336074D01*
X152051799Y-86308211D01*
X152172451Y-86321245D01*
X152286468Y-86377825D01*
X152362226Y-86500191D01*
X152407160Y-86647875D01*
X152461302Y-86825598D01*
X152515142Y-86945115D01*
X152534811Y-86968076D01*
X152562576Y-87044313D01*
X152582530Y-87211806D01*
X152590491Y-87434862D01*
X152590500Y-87443247D01*
X152586782Y-87676187D01*
X152570639Y-87809264D01*
X152534590Y-87869518D01*
X152471151Y-87883990D01*
X152468546Y-87884000D01*
X152359726Y-87830462D01*
X152305714Y-87697887D01*
X152248577Y-87539203D01*
X152179543Y-87440987D01*
X152114637Y-87420353D01*
X152049509Y-87488619D01*
X151980904Y-87627099D01*
X151872980Y-87810237D01*
X151763754Y-87883311D01*
X151752780Y-87884000D01*
X151689211Y-87866792D01*
X151654299Y-87796693D01*
X151640032Y-87645986D01*
X151638033Y-87487125D01*
X151638033Y-90076784D01*
X151778641Y-90185901D01*
X152029251Y-90280990D01*
X152285678Y-90268758D01*
X152521233Y-90164651D01*
X152709227Y-89984117D01*
X152803812Y-89783285D01*
X152803812Y-84564823D01*
X152839832Y-84463723D01*
X153073558Y-84153862D01*
X153384314Y-83927950D01*
X153745087Y-83797710D01*
X154128862Y-83774860D01*
X154340778Y-83812535D01*
X154600120Y-83925752D01*
X154856877Y-84109371D01*
X155071097Y-84329129D01*
X155202829Y-84550763D01*
X155203396Y-84552320D01*
X155267633Y-84695840D01*
X155324848Y-84769795D01*
X155333757Y-84772500D01*
X155363006Y-84829055D01*
X155379407Y-84972368D01*
X155383548Y-85162910D01*
X155376016Y-85361152D01*
X155357401Y-85527564D01*
X155328290Y-85622617D01*
X155321000Y-85629750D01*
X155268723Y-85718803D01*
X155257500Y-85799718D01*
X155214552Y-85915566D01*
X155104188Y-86073383D01*
X155006467Y-86181474D01*
X154831232Y-86337032D01*
X154692010Y-86406406D01*
X154578594Y-86412129D01*
X154456741Y-86378344D01*
X154393301Y-86287952D01*
X154363259Y-86152923D01*
X154332272Y-85993175D01*
X154304035Y-85898473D01*
X154299008Y-85890870D01*
X154214342Y-85840772D01*
X154055202Y-85763552D01*
X153861952Y-85676916D01*
X153674955Y-85598569D01*
X153534575Y-85546217D01*
X153486568Y-85534500D01*
X153432948Y-85527556D01*
X153369020Y-85494621D01*
X153268731Y-85417537D01*
X153106025Y-85278144D01*
X153055890Y-85234361D01*
X152894279Y-85032267D01*
X152806222Y-84794711D01*
X152803812Y-84564823D01*
X152803812Y-89783285D01*
X152822972Y-89742603D01*
X152844500Y-89568984D01*
X152859238Y-89413597D01*
X152914836Y-89350997D01*
X152964434Y-89344500D01*
X153057979Y-89385055D01*
X153116446Y-89522348D01*
X153127803Y-89576033D01*
X153235263Y-89892323D01*
X153425083Y-90116509D01*
X153559079Y-90200253D01*
X153848691Y-90284284D01*
X154127170Y-90249956D01*
X154223741Y-90206482D01*
X154448502Y-90033715D01*
X154575495Y-89807672D01*
X154615417Y-89506278D01*
X154612384Y-89404235D01*
X154590750Y-89022393D01*
X155003500Y-88595282D01*
X155324614Y-88248115D01*
X155564901Y-87950253D01*
X155744517Y-87673983D01*
X155883614Y-87391591D01*
X155890209Y-87376000D01*
X155975598Y-87192619D01*
X156045859Y-87058500D01*
X156116572Y-86888659D01*
X156174379Y-86678244D01*
X156180704Y-86645750D01*
X156223664Y-86465719D01*
X156272956Y-86336437D01*
X156284430Y-86318550D01*
X156329594Y-86196154D01*
X156364450Y-85973917D01*
X156388937Y-85678407D01*
X156402996Y-85336187D01*
X156406565Y-84973825D01*
X156399585Y-84617884D01*
X156381996Y-84294932D01*
X156353736Y-84031532D01*
X156314746Y-83854251D01*
X156290135Y-83804823D01*
X156237916Y-83692763D01*
X156189846Y-83517888D01*
X156182037Y-83478011D01*
X156118814Y-83248691D01*
X156024497Y-83020883D01*
X156015007Y-83002701D01*
X155937795Y-82848344D01*
X155895334Y-82743443D01*
X155892500Y-82728385D01*
X155860172Y-82652177D01*
X155778536Y-82512864D01*
X155732586Y-82441694D01*
X155615505Y-82263425D01*
X155516611Y-82109762D01*
X155494461Y-82074455D01*
X155360817Y-81898263D01*
X155163328Y-81686914D01*
X154923856Y-81458770D01*
X154664261Y-81232191D01*
X154406405Y-81025540D01*
X154172149Y-80857176D01*
X153983352Y-80745462D01*
X153868137Y-80708500D01*
X153800406Y-80668772D01*
X153797000Y-80651333D01*
X153740701Y-80606443D01*
X153595846Y-80551728D01*
X153463625Y-80516017D01*
X153257992Y-80458840D01*
X153096450Y-80398017D01*
X153041116Y-80366809D01*
X152939415Y-80336346D01*
X152741250Y-80314177D01*
X152476769Y-80300287D01*
X152176117Y-80294660D01*
X151869440Y-80297279D01*
X151586884Y-80308129D01*
X151358594Y-80327194D01*
X151214718Y-80354458D01*
X151187385Y-80367792D01*
X151065214Y-80430656D01*
X150891772Y-80483992D01*
X150883296Y-80485847D01*
X150637917Y-80567359D01*
X150315102Y-80719750D01*
X149935410Y-80933118D01*
X149860000Y-80978836D01*
X149724990Y-81080532D01*
X149532067Y-81249132D01*
X149309073Y-81457861D01*
X149083847Y-81679944D01*
X148884230Y-81888606D01*
X148738062Y-82057073D01*
X148735584Y-82060218D01*
X148629147Y-82220991D01*
X148497355Y-82455724D01*
X148357141Y-82729647D01*
X148225435Y-83007991D01*
X148119168Y-83255987D01*
X148055271Y-83438864D01*
X148047257Y-83473782D01*
X148000729Y-83658139D01*
X147943112Y-83795929D01*
X147930846Y-83813944D01*
X147904608Y-83909702D01*
X147884157Y-84107004D01*
X147869500Y-84380525D01*
X147860644Y-84704940D01*
X147857595Y-85054923D01*
X147857595Y-85054923D01*
G36*
X154957013Y-80705474D02*
X155391040Y-81150837D01*
X155591553Y-81365741D01*
X155766499Y-81569789D01*
X155889786Y-81731813D01*
X155923915Y-81787350D01*
X156003749Y-81916583D01*
X156067126Y-81977747D01*
X156071875Y-81978500D01*
X156123466Y-82031965D01*
X156187452Y-82163691D01*
X156199100Y-82194514D01*
X156294961Y-82406535D01*
X156394493Y-82498562D01*
X156513045Y-82477065D01*
X156635900Y-82378597D01*
X156750517Y-82271523D01*
X156937253Y-82101962D01*
X157172631Y-81891040D01*
X157433178Y-81659880D01*
X157503707Y-81597696D01*
X158188643Y-80994642D01*
X158929697Y-80992883D01*
X159256045Y-80989848D01*
X159487100Y-80979114D01*
X159654544Y-80955501D01*
X159790060Y-80913827D01*
X159925330Y-80848909D01*
X159974364Y-80822033D01*
X160185246Y-80694905D01*
X160378278Y-80562799D01*
X160450614Y-80506096D01*
X160590666Y-80367384D01*
X160743721Y-80186576D01*
X160885265Y-79996717D01*
X160990780Y-79830853D01*
X161035752Y-79722030D01*
X161036000Y-79717032D01*
X161081367Y-79628534D01*
X161102650Y-79617366D01*
X161146674Y-79545907D01*
X161189700Y-79385257D01*
X161226697Y-79173159D01*
X161252630Y-78947357D01*
X161262469Y-78745596D01*
X161251179Y-78605620D01*
X161241225Y-78578066D01*
X161194886Y-78534409D01*
X161121256Y-78557113D01*
X160995671Y-78657350D01*
X160926362Y-78720731D01*
X160674376Y-78952341D01*
X160423654Y-79177786D01*
X160193482Y-79380260D01*
X160003149Y-79542960D01*
X159871941Y-79649082D01*
X159823433Y-79681633D01*
X159755609Y-79648829D01*
X159633502Y-79542622D01*
X159496974Y-79400552D01*
X159314833Y-79199809D01*
X159091939Y-78957552D01*
X158874914Y-78724433D01*
X158864106Y-78712918D01*
X158579982Y-78408130D01*
X158374064Y-78181283D01*
X158235670Y-78019610D01*
X158154118Y-77910343D01*
X158118728Y-77840716D01*
X158115000Y-77817526D01*
X158160257Y-77741564D01*
X158278846Y-77613945D01*
X158443340Y-77463838D01*
X158642062Y-77291908D01*
X158826848Y-77127507D01*
X158938410Y-77024404D01*
X159113675Y-76865929D01*
X159286515Y-76721890D01*
X159394141Y-76619088D01*
X159430205Y-76545867D01*
X159425765Y-76537097D01*
X159316217Y-76498033D01*
X159118646Y-76486536D01*
X158868352Y-76499846D01*
X158600639Y-76535206D01*
X158350809Y-76589853D01*
X158223246Y-76631108D01*
X158004412Y-76718544D01*
X157843087Y-76798908D01*
X157700615Y-76898181D01*
X157538339Y-77042346D01*
X157373776Y-77202054D01*
X157063064Y-77574928D01*
X156859196Y-77986730D01*
X156750954Y-78462759D01*
X156733875Y-78644750D01*
X156713181Y-78903983D01*
X156684124Y-79073216D01*
X156633975Y-79189369D01*
X156550006Y-79289366D01*
X156493101Y-79343250D01*
X156254656Y-79560734D01*
X155987756Y-79801839D01*
X155717647Y-80044002D01*
X155469572Y-80264662D01*
X155268777Y-80441258D01*
X155154882Y-80539236D01*
X154957013Y-80705474D01*
X154957013Y-80705474D01*
X154957013Y-80705474D01*
G37*
X154957013Y-80705474D02*
X155391040Y-81150837D01*
X155591553Y-81365741D01*
X155766499Y-81569789D01*
X155889786Y-81731813D01*
X155923915Y-81787350D01*
X156003749Y-81916583D01*
X156067126Y-81977747D01*
X156071875Y-81978500D01*
X156123466Y-82031965D01*
X156187452Y-82163691D01*
X156199100Y-82194514D01*
X156294961Y-82406535D01*
X156394493Y-82498562D01*
X156513045Y-82477065D01*
X156635900Y-82378597D01*
X156750517Y-82271523D01*
X156937253Y-82101962D01*
X157172631Y-81891040D01*
X157433178Y-81659880D01*
X157503707Y-81597696D01*
X158188643Y-80994642D01*
X158929697Y-80992883D01*
X159256045Y-80989848D01*
X159487100Y-80979114D01*
X159654544Y-80955501D01*
X159790060Y-80913827D01*
X159925330Y-80848909D01*
X159974364Y-80822033D01*
X160185246Y-80694905D01*
X160378278Y-80562799D01*
X160450614Y-80506096D01*
X160590666Y-80367384D01*
X160743721Y-80186576D01*
X160885265Y-79996717D01*
X160990780Y-79830853D01*
X161035752Y-79722030D01*
X161036000Y-79717032D01*
X161081367Y-79628534D01*
X161102650Y-79617366D01*
X161146674Y-79545907D01*
X161189700Y-79385257D01*
X161226697Y-79173159D01*
X161252630Y-78947357D01*
X161262469Y-78745596D01*
X161251179Y-78605620D01*
X161241225Y-78578066D01*
X161194886Y-78534409D01*
X161121256Y-78557113D01*
X160995671Y-78657350D01*
X160926362Y-78720731D01*
X160674376Y-78952341D01*
X160423654Y-79177786D01*
X160193482Y-79380260D01*
X160003149Y-79542960D01*
X159871941Y-79649082D01*
X159823433Y-79681633D01*
X159755609Y-79648829D01*
X159633502Y-79542622D01*
X159496974Y-79400552D01*
X159314833Y-79199809D01*
X159091939Y-78957552D01*
X158874914Y-78724433D01*
X158864106Y-78712918D01*
X158579982Y-78408130D01*
X158374064Y-78181283D01*
X158235670Y-78019610D01*
X158154118Y-77910343D01*
X158118728Y-77840716D01*
X158115000Y-77817526D01*
X158160257Y-77741564D01*
X158278846Y-77613945D01*
X158443340Y-77463838D01*
X158642062Y-77291908D01*
X158826848Y-77127507D01*
X158938410Y-77024404D01*
X159113675Y-76865929D01*
X159286515Y-76721890D01*
X159394141Y-76619088D01*
X159430205Y-76545867D01*
X159425765Y-76537097D01*
X159316217Y-76498033D01*
X159118646Y-76486536D01*
X158868352Y-76499846D01*
X158600639Y-76535206D01*
X158350809Y-76589853D01*
X158223246Y-76631108D01*
X158004412Y-76718544D01*
X157843087Y-76798908D01*
X157700615Y-76898181D01*
X157538339Y-77042346D01*
X157373776Y-77202054D01*
X157063064Y-77574928D01*
X156859196Y-77986730D01*
X156750954Y-78462759D01*
X156733875Y-78644750D01*
X156713181Y-78903983D01*
X156684124Y-79073216D01*
X156633975Y-79189369D01*
X156550006Y-79289366D01*
X156493101Y-79343250D01*
X156254656Y-79560734D01*
X155987756Y-79801839D01*
X155717647Y-80044002D01*
X155469572Y-80264662D01*
X155268777Y-80441258D01*
X155154882Y-80539236D01*
X154957013Y-80705474D01*
X154957013Y-80705474D01*
G36*
X142972785Y-78740976D02*
X142979691Y-78934709D01*
X143004257Y-79157454D01*
X143041013Y-79370931D01*
X143084492Y-79536860D01*
X143129224Y-79616961D01*
X143132406Y-79618416D01*
X143189348Y-79691219D01*
X143192500Y-79717032D01*
X143231875Y-79820175D01*
X143333654Y-79982868D01*
X143473322Y-80172065D01*
X143626363Y-80354719D01*
X143768262Y-80497785D01*
X143777887Y-80506096D01*
X143937028Y-80624436D01*
X144146477Y-80759330D01*
X144254137Y-80822033D01*
X144396863Y-80895911D01*
X144529584Y-80944640D01*
X144684245Y-80973479D01*
X144892796Y-80987686D01*
X145187184Y-80992522D01*
X145292256Y-80992920D01*
X146026761Y-80994716D01*
X146368377Y-81280233D01*
X146563061Y-81445158D01*
X146736241Y-81595676D01*
X146843460Y-81692750D01*
X146977339Y-81815921D01*
X147147070Y-81966911D01*
X147196089Y-82009635D01*
X147388509Y-82177075D01*
X147584025Y-82348260D01*
X147617960Y-82378120D01*
X147820670Y-82556719D01*
X147930645Y-82378734D01*
X148170541Y-81999407D01*
X148373271Y-81702258D01*
X148561233Y-81457301D01*
X148756831Y-81234550D01*
X148884895Y-81101391D01*
X149072180Y-80909643D01*
X149181493Y-80785789D01*
X149224385Y-80707644D01*
X149212404Y-80653020D01*
X149157103Y-80599729D01*
X149149355Y-80593391D01*
X149006764Y-80473051D01*
X148851657Y-80337062D01*
X148722677Y-80221766D01*
X148536328Y-80055591D01*
X148330165Y-79872023D01*
X148304250Y-79848968D01*
X148019451Y-79597000D01*
X147813502Y-79412025D01*
X147673236Y-79273512D01*
X147585479Y-79160927D01*
X147537064Y-79053737D01*
X147514818Y-78931410D01*
X147505572Y-78773413D01*
X147497899Y-78591862D01*
X147478104Y-78336352D01*
X147449638Y-78131325D01*
X147417422Y-78008322D01*
X147403810Y-77988612D01*
X147341819Y-77904266D01*
X147274572Y-77752151D01*
X147264852Y-77724000D01*
X147167200Y-77547722D01*
X146983932Y-77324137D01*
X146735505Y-77075775D01*
X146465393Y-76843490D01*
X146227593Y-76705362D01*
X145910989Y-76591087D01*
X145563190Y-76512325D01*
X145231806Y-76480738D01*
X145034552Y-76493027D01*
X144768861Y-76535512D01*
X145097356Y-76840699D01*
X145331133Y-77054743D01*
X145593727Y-77290577D01*
X145769676Y-77445813D01*
X145939011Y-77603385D01*
X146061782Y-77736424D01*
X146113210Y-77817873D01*
X146113500Y-77821238D01*
X146073121Y-77909302D01*
X145970787Y-78046210D01*
X145907125Y-78118235D01*
X145600668Y-78448653D01*
X145284473Y-78792160D01*
X144989924Y-79114527D01*
X144748407Y-79381526D01*
X144731527Y-79400350D01*
X144583845Y-79553198D01*
X144465097Y-79654449D01*
X144405068Y-79681633D01*
X144332230Y-79630259D01*
X144185455Y-79509390D01*
X143984002Y-79335810D01*
X143747132Y-79126299D01*
X143494103Y-78897638D01*
X143300829Y-78719497D01*
X143151973Y-78584741D01*
X143068146Y-78528666D01*
X143022528Y-78542244D01*
X142989005Y-78614536D01*
X142972785Y-78740976D01*
X142972785Y-78740976D01*
X142972785Y-78740976D01*
G37*
X142972785Y-78740976D02*
X142979691Y-78934709D01*
X143004257Y-79157454D01*
X143041013Y-79370931D01*
X143084492Y-79536860D01*
X143129224Y-79616961D01*
X143132406Y-79618416D01*
X143189348Y-79691219D01*
X143192500Y-79717032D01*
X143231875Y-79820175D01*
X143333654Y-79982868D01*
X143473322Y-80172065D01*
X143626363Y-80354719D01*
X143768262Y-80497785D01*
X143777887Y-80506096D01*
X143937028Y-80624436D01*
X144146477Y-80759330D01*
X144254137Y-80822033D01*
X144396863Y-80895911D01*
X144529584Y-80944640D01*
X144684245Y-80973479D01*
X144892796Y-80987686D01*
X145187184Y-80992522D01*
X145292256Y-80992920D01*
X146026761Y-80994716D01*
X146368377Y-81280233D01*
X146563061Y-81445158D01*
X146736241Y-81595676D01*
X146843460Y-81692750D01*
X146977339Y-81815921D01*
X147147070Y-81966911D01*
X147196089Y-82009635D01*
X147388509Y-82177075D01*
X147584025Y-82348260D01*
X147617960Y-82378120D01*
X147820670Y-82556719D01*
X147930645Y-82378734D01*
X148170541Y-81999407D01*
X148373271Y-81702258D01*
X148561233Y-81457301D01*
X148756831Y-81234550D01*
X148884895Y-81101391D01*
X149072180Y-80909643D01*
X149181493Y-80785789D01*
X149224385Y-80707644D01*
X149212404Y-80653020D01*
X149157103Y-80599729D01*
X149149355Y-80593391D01*
X149006764Y-80473051D01*
X148851657Y-80337062D01*
X148722677Y-80221766D01*
X148536328Y-80055591D01*
X148330165Y-79872023D01*
X148304250Y-79848968D01*
X148019451Y-79597000D01*
X147813502Y-79412025D01*
X147673236Y-79273512D01*
X147585479Y-79160927D01*
X147537064Y-79053737D01*
X147514818Y-78931410D01*
X147505572Y-78773413D01*
X147497899Y-78591862D01*
X147478104Y-78336352D01*
X147449638Y-78131325D01*
X147417422Y-78008322D01*
X147403810Y-77988612D01*
X147341819Y-77904266D01*
X147274572Y-77752151D01*
X147264852Y-77724000D01*
X147167200Y-77547722D01*
X146983932Y-77324137D01*
X146735505Y-77075775D01*
X146465393Y-76843490D01*
X146227593Y-76705362D01*
X145910989Y-76591087D01*
X145563190Y-76512325D01*
X145231806Y-76480738D01*
X145034552Y-76493027D01*
X144768861Y-76535512D01*
X145097356Y-76840699D01*
X145331133Y-77054743D01*
X145593727Y-77290577D01*
X145769676Y-77445813D01*
X145939011Y-77603385D01*
X146061782Y-77736424D01*
X146113210Y-77817873D01*
X146113500Y-77821238D01*
X146073121Y-77909302D01*
X145970787Y-78046210D01*
X145907125Y-78118235D01*
X145600668Y-78448653D01*
X145284473Y-78792160D01*
X144989924Y-79114527D01*
X144748407Y-79381526D01*
X144731527Y-79400350D01*
X144583845Y-79553198D01*
X144465097Y-79654449D01*
X144405068Y-79681633D01*
X144332230Y-79630259D01*
X144185455Y-79509390D01*
X143984002Y-79335810D01*
X143747132Y-79126299D01*
X143494103Y-78897638D01*
X143300829Y-78719497D01*
X143151973Y-78584741D01*
X143068146Y-78528666D01*
X143022528Y-78542244D01*
X142989005Y-78614536D01*
X142972785Y-78740976D01*
X142972785Y-78740976D01*
%LPC*%
D12*
X134620000Y-92837000D03*
X132080000Y-92837000D03*
X137541000Y-92837000D03*
X140081000Y-92837000D03*
D13*
X161290000Y-99822000D03*
X161290000Y-97282000D03*
D14*
X133604000Y-88519000D03*
X133604000Y-85979000D03*
X133604000Y-83439000D03*
X129032000Y-82550000D03*
X129032000Y-85090000D03*
X129032000Y-87630000D03*
X129032000Y-90170000D03*
X129032000Y-92710000D03*
X129032000Y-95250000D03*
X160401000Y-85090000D03*
X162941000Y-85090000D03*
X160401000Y-87630000D03*
X162941000Y-87630000D03*
X160401000Y-90170000D03*
X162941000Y-90170000D03*
X160401000Y-92710000D03*
X162941000Y-92710000D03*
X143510000Y-88519000D03*
X143510000Y-85979000D03*
X143510000Y-83439000D03*
D13*
X156083000Y-100076000D03*
X151003000Y-100076000D03*
X156083000Y-92456000D03*
X151003000Y-92456000D03*
X143129000Y-92456000D03*
X148209000Y-92456000D03*
X143129000Y-100076000D03*
X148209000Y-100076000D03*
D15*
X138938000Y-98933000D03*
X136398000Y-98933000D03*
X133858000Y-98933000D03*
D13*
X137287000Y-88646000D03*
X137287000Y-78486000D03*
X146939000Y-82042000D03*
X157099000Y-82042000D03*
X146939000Y-78994000D03*
X157099000Y-78994000D03*
X157099000Y-88138000D03*
X146939000Y-88138000D03*
X140081000Y-78486000D03*
X140081000Y-88646000D03*
D16*
X146939000Y-85090000D03*
X157099000Y-85090000D03*
M02*
