M48
INCH,TZ
T1C0.030
T2C0.039
T3C0.040
%
G90
G05
T1
X052000Y-036550
X053000Y-036550
X054150Y-036550
X055150Y-036550
T2
X057850Y-033500
X061850Y-033500
T3
X050800Y-032500
X050800Y-033500
X050800Y-034500
X050800Y-035500
X050800Y-036500
X050800Y-037500
X052600Y-032850
X052600Y-033850
X052600Y-034850
X052700Y-038950
X053700Y-038950
X054050Y-030900
X054050Y-034900
X054700Y-038950
X055150Y-030900
X055150Y-034900
X056350Y-036400
X056350Y-039400
X056500Y-032850
X056500Y-033850
X056500Y-034850
X057850Y-031100
X057850Y-032300
X057850Y-034700
X058350Y-036400
X058350Y-039400
X059450Y-036400
X059450Y-039400
X061450Y-036400
X061450Y-039400
X061850Y-031100
X061850Y-032300
X061850Y-034700
X063150Y-033500
X063150Y-034500
X063150Y-035500
X063150Y-036500
X063500Y-038300
X063500Y-039300
X064150Y-033500
X064150Y-034500
X064150Y-035500
X064150Y-036500
T0
M30
